<svg width="776" height="508" viewBox="0 0 776 508" fill="none" xmlns="http://www.w3.org/2000/svg">
<mask id="path-1-outside-1_3_73" maskUnits="userSpaceOnUse" x="0" y="0" width="776" height="508" fill="black">
<rect fill="white" width="776" height="508"/>
<path fill-rule="evenodd" clip-rule="evenodd" d="M383.536 2H307.676C298.828 2 291.031 7.81423 288.507 16.2949L283.728 32.3555C281.204 40.8362 273.407 46.6504 264.558 46.6504H22C10.9543 46.6504 2 55.6047 2 66.6504V486C2 497.046 10.9543 506 22 506H754C765.046 506 774 497.046 774 486V66.6504C774 55.6047 765.046 46.6504 754 46.6504H511.442C502.593 46.6504 494.796 40.8362 492.272 32.3555L487.493 16.2949C484.969 7.81422 477.172 2 468.324 2H383.536Z"/>
</mask>
<path fill-rule="evenodd" clip-rule="evenodd" d="M383.536 2H307.676C298.828 2 291.031 7.81423 288.507 16.2949L283.728 32.3555C281.204 40.8362 273.407 46.6504 264.558 46.6504H22C10.9543 46.6504 2 55.6047 2 66.6504V486C2 497.046 10.9543 506 22 506H754C765.046 506 774 497.046 774 486V66.6504C774 55.6047 765.046 46.6504 754 46.6504H511.442C502.593 46.6504 494.796 40.8362 492.272 32.3555L487.493 16.2949C484.969 7.81422 477.172 2 468.324 2H383.536Z" fill="white"/>
<path d="M487.493 16.2949L485.576 16.8654L487.493 16.2949ZM492.272 32.3555L494.189 31.785L492.272 32.3555ZM283.728 32.3555L281.811 31.785L283.728 32.3555ZM288.507 16.2949L290.424 16.8654L288.507 16.2949ZM307.676 4H383.536V0H307.676V4ZM285.644 32.926L290.424 16.8654L286.591 15.7244L281.811 31.785L285.644 32.926ZM22 48.6504H264.558V44.6504H22V48.6504ZM4 486V66.6504H0V486H4ZM754 504H22V508H754V504ZM772 66.6504V486H776V66.6504H772ZM511.442 48.6504H754V44.6504H511.442V48.6504ZM485.576 16.8654L490.356 32.926L494.189 31.785L489.409 15.7244L485.576 16.8654ZM383.536 4H468.324V0H383.536V4ZM489.409 15.7244C486.633 6.39564 478.057 0 468.324 0V4C476.287 4 483.304 9.2328 485.576 16.8654L489.409 15.7244ZM511.442 44.6504C503.478 44.6504 496.461 39.4176 494.189 31.785L490.356 32.926C493.132 42.2548 501.708 48.6504 511.442 48.6504V44.6504ZM776 66.6504C776 54.5001 766.15 44.6504 754 44.6504V48.6504C763.941 48.6504 772 56.7093 772 66.6504H776ZM0 486C0 498.15 9.84974 508 22 508V504C12.0589 504 4 495.941 4 486H0ZM22 44.6504C9.84974 44.6504 0 54.5001 0 66.6504H4C4 56.7093 12.0589 48.6504 22 48.6504V44.6504ZM281.811 31.785C279.539 39.4176 272.522 44.6504 264.558 44.6504V48.6504C274.292 48.6504 282.868 42.2548 285.644 32.926L281.811 31.785ZM754 508C766.15 508 776 498.15 776 486H772C772 495.941 763.941 504 754 504V508ZM307.676 0C297.943 0 289.367 6.39565 286.591 15.7244L290.424 16.8654C292.696 9.2328 299.713 4 307.676 4V0Z" fill="black" mask="url(#path-1-outside-1_3_73)"/>
</svg>
