<svg width="776" height="508" viewBox="0 0 776 508" fill="none" xmlns="http://www.w3.org/2000/svg">
<mask id="path-1-outside-1_3_72" maskUnits="userSpaceOnUse" x="0" y="0" width="776" height="508" fill="black">
<rect fill="white" width="776" height="508"/>
<path fill-rule="evenodd" clip-rule="evenodd" d="M616.536 2H540.676C531.828 2 524.031 7.81423 521.507 16.2949L516.728 32.3555C514.204 40.8362 506.407 46.6504 497.558 46.6504H22C10.9543 46.6504 2 55.6047 2 66.6504V486C2 497.046 10.9543 506 22 506H754C765.046 506 774 497.046 774 486V66.6504C774 55.6047 765.046 46.6504 754 46.6504H744.442C735.593 46.6504 727.796 40.8362 725.272 32.3555L720.493 16.2949C717.969 7.81422 710.172 2 701.324 2H616.536Z"/>
</mask>
<path fill-rule="evenodd" clip-rule="evenodd" d="M616.536 2H540.676C531.828 2 524.031 7.81423 521.507 16.2949L516.728 32.3555C514.204 40.8362 506.407 46.6504 497.558 46.6504H22C10.9543 46.6504 2 55.6047 2 66.6504V486C2 497.046 10.9543 506 22 506H754C765.046 506 774 497.046 774 486V66.6504C774 55.6047 765.046 46.6504 754 46.6504H744.442C735.593 46.6504 727.796 40.8362 725.272 32.3555L720.493 16.2949C717.969 7.81422 710.172 2 701.324 2H616.536Z" fill="white"/>
<path d="M720.493 16.2949L718.576 16.8654L720.493 16.2949ZM725.272 32.3555L727.189 31.785L725.272 32.3555ZM516.728 32.3555L514.811 31.785L516.728 32.3555ZM521.507 16.2949L523.424 16.8654L521.507 16.2949ZM540.676 4H616.536V0H540.676V4ZM518.644 32.926L523.424 16.8654L519.591 15.7244L514.811 31.785L518.644 32.926ZM22 48.6504H497.558V44.6504H22V48.6504ZM4 486V66.6504H0V486H4ZM754 504H22V508H754V504ZM772 66.6504V486H776V66.6504H772ZM744.442 48.6504H754V44.6504H744.442V48.6504ZM718.576 16.8654L723.356 32.926L727.189 31.785L722.409 15.7244L718.576 16.8654ZM616.536 4H701.324V0H616.536V4ZM722.409 15.7244C719.633 6.39564 711.057 0 701.324 0V4C709.287 4 716.304 9.2328 718.576 16.8654L722.409 15.7244ZM744.442 44.6504C736.478 44.6504 729.461 39.4176 727.189 31.785L723.356 32.926C726.132 42.2548 734.708 48.6504 744.442 48.6504V44.6504ZM776 66.6504C776 54.5001 766.15 44.6504 754 44.6504V48.6504C763.941 48.6504 772 56.7093 772 66.6504H776ZM0 486C0 498.15 9.84974 508 22 508V504C12.0589 504 4 495.941 4 486H0ZM22 44.6504C9.84974 44.6504 0 54.5001 0 66.6504H4C4 56.7093 12.0589 48.6504 22 48.6504V44.6504ZM514.811 31.785C512.539 39.4176 505.522 44.6504 497.558 44.6504V48.6504C507.292 48.6504 515.868 42.2548 518.644 32.926L514.811 31.785ZM754 508C766.15 508 776 498.15 776 486H772C772 495.941 763.941 504 754 504V508ZM540.676 0C530.943 0 522.367 6.39565 519.591 15.7244L523.424 16.8654C525.696 9.2328 532.713 4 540.676 4V0Z" fill="black" mask="url(#path-1-outside-1_3_72)"/>
</svg>
