<svg width="776" height="508" viewBox="0 0 776 508" fill="none" xmlns="http://www.w3.org/2000/svg">
<mask id="path-1-outside-1_3_71" maskUnits="userSpaceOnUse" x="0" y="0" width="776" height="508" fill="black">
<rect fill="white" width="776" height="508"/>
<path fill-rule="evenodd" clip-rule="evenodd" d="M145.536 2H69.6765C60.8282 2 53.0315 7.81422 50.5075 16.2949L45.9211 31.7051C43.3971 40.1858 35.6004 46 26.7521 46H22C10.9543 46 2 54.9543 2 66V486C2 497.046 10.9543 506 22 506H754C765.046 506 774 497.046 774 486V66C774 54.9543 765.046 46 754 46H273.248C264.4 46 256.603 40.1858 254.079 31.7051L249.493 16.2949C246.969 7.81422 239.172 2 230.324 2H145.536Z"/>
</mask>
<path fill-rule="evenodd" clip-rule="evenodd" d="M145.536 2H69.6765C60.8282 2 53.0315 7.81422 50.5075 16.2949L45.9211 31.7051C43.3971 40.1858 35.6004 46 26.7521 46H22C10.9543 46 2 54.9543 2 66V486C2 497.046 10.9543 506 22 506H754C765.046 506 774 497.046 774 486V66C774 54.9543 765.046 46 754 46H273.248C264.4 46 256.603 40.1858 254.079 31.7051L249.493 16.2949C246.969 7.81422 239.172 2 230.324 2H145.536Z" fill="white"/>
<path d="M249.493 16.2949L251.409 15.7244L249.493 16.2949ZM254.079 31.7051L252.162 32.2756L254.079 31.7051ZM50.5075 16.2949L48.5906 15.7244L50.5075 16.2949ZM69.6765 4H145.536V0H69.6765V4ZM47.838 32.2756L52.4244 16.8654L48.5906 15.7244L44.0042 31.1346L47.838 32.2756ZM22 48H26.7521V44H22V48ZM4 486V66H0V486H4ZM754 504H22V508H754V504ZM772 66V486H776V66H772ZM273.248 48H754V44H273.248V48ZM247.576 16.8654L252.162 32.2756L255.996 31.1346L251.409 15.7244L247.576 16.8654ZM145.536 4H230.324V0H145.536V4ZM251.409 15.7244C248.633 6.39564 240.057 0 230.324 0V4C238.287 4 245.304 9.2328 247.576 16.8654L251.409 15.7244ZM273.248 44C265.284 44 258.267 38.7672 255.996 31.1346L252.162 32.2756C254.938 41.6044 263.515 48 273.248 48V44ZM776 66C776 53.8497 766.15 44 754 44V48C763.941 48 772 56.0589 772 66H776ZM0 486C0 498.15 9.84974 508 22 508V504C12.0589 504 4 495.941 4 486H0ZM22 44C9.84973 44 0 53.8497 0 66H4C4 56.0589 12.0589 48 22 48V44ZM44.0042 31.1346C41.7326 38.7672 34.7156 44 26.7521 44V48C36.4852 48 45.0616 41.6044 47.838 32.2756L44.0042 31.1346ZM754 508C766.15 508 776 498.15 776 486H772C772 495.941 763.941 504 754 504V508ZM69.6765 0C59.9433 0 51.367 6.39564 48.5906 15.7244L52.4244 16.8654C54.696 9.2328 61.713 4 69.6765 4V0Z" fill="black" mask="url(#path-1-outside-1_3_71)"/>
</svg>
