<svg width="410" height="250" viewBox="0 0 410 250" fill="none" xmlns="http://www.w3.org/2000/svg">
<path fill-rule="evenodd" clip-rule="evenodd" d="M371.999 250V35.0001H40.9993L40.9992 176.713L187.684 249.948H40.9992L40.9993 250H371.999Z" fill="#9FA0AA"/>
<path d="M187.385 250L41.3855 177H187.385V250Z" fill="#80818E"/>
<path d="M302.761 16.8113L300.663 13.8945L300.754 13.6072L303.241 13.5291L301.673 11.3491L304.254 11.2681L302.722 9.13807L304.574 9.07995L303.042 6.94994L304.894 6.89183L303.489 4.93742L303.562 4.70438L305.907 4.6308L304.339 2.45073L306.92 2.36975L305.247 0.0430836L408.2 34.5265L405.518 34.6106L407.086 36.7907L404.505 36.8717L406.073 39.0517L403.492 39.1327L405.024 41.2627L403.172 41.3208L404.704 43.4508L402.852 43.5089L404.42 45.689L401.839 45.77L404.137 48.965L401.359 49.0522L402.927 51.2322L400.346 51.3132L401.914 53.4932L399.333 53.5742L401.505 56.5945L399.095 56.6701L400.663 58.8502L398.082 58.9312L399.65 61.1112L397.069 61.1922L398.601 63.3222L396.749 63.3804L398.281 65.5103L396.429 65.5684L397.997 67.7485L395.416 67.8295L397.565 70.8171L397.497 71.0313L394.936 71.1117L396.504 73.2917L393.923 73.3727L395.491 75.5527L392.91 75.6337L393.631 76.6353L294.29 43.3619L292.745 41.2128L295.325 41.1318L293.757 38.9518L296.338 38.8708L294.04 35.6758L296.818 35.5886L295.25 33.4085L297.831 33.3276L296.299 31.1976L298.151 31.1394L296.619 29.0094L298.471 28.9513L296.904 26.7713L299.484 26.6903L297.916 24.5102L300.497 24.4293L298.325 21.409L300.735 21.3334L299.167 19.1533L301.748 19.0723L300.18 16.8923L302.761 16.8113Z" fill="#CCCCCC" fill-opacity="0.42"/>
<path d="M93.9139 22.9324L94.8617 19.467L94.6766 19.2294L92.3188 20.0241L93.0272 17.434L90.5803 18.2587L91.2725 15.7281L89.5168 16.3198L90.209 13.7892L88.4531 14.381L89.0882 12.059L88.938 11.8663L86.7149 12.6156L87.4234 10.0255L84.9766 10.8501L85.7327 8.08585L1.28501 76.3283L3.82771 75.4713L3.11926 78.0614L5.5659 77.2368L4.85746 79.8269L7.30419 79.0022L6.61202 81.5328L8.36787 80.941L7.67569 83.4717L9.43129 82.8799L8.72283 85.4701L11.1697 84.6453L10.1315 88.4412L12.765 87.5536L12.0565 90.1437L14.5031 89.319L13.7947 91.9091L16.2414 91.0845L15.26 94.6728L17.5448 93.9027L16.8363 96.4928L19.2829 95.6682L18.5745 98.2583L21.0213 97.4336L20.3291 99.9643L22.085 99.3725L21.3928 101.903L23.1483 101.311L22.4399 103.901L24.8867 103.077L23.9158 106.626L24.0538 106.803L26.482 105.985L25.7736 108.575L28.2201 107.751L27.5116 110.341L29.9583 109.516L29.6328 110.706L111.117 44.858L111.816 42.3047L109.369 43.1293L110.078 40.5392L107.631 41.3639L108.669 37.5679L106.036 38.4555L106.744 35.8654L104.297 36.6901L104.99 34.1595L103.234 34.7513L103.926 32.2206L102.17 32.8124L102.879 30.2223L100.432 31.047L101.14 28.4569L98.6936 29.2816L99.6751 25.6932L97.3904 26.4633L98.0988 23.8732L95.6522 24.6978L96.3606 22.1078L93.9139 22.9324Z" fill="#CCCCCC" fill-opacity="0.42"/>
<path d="M111.244 122.12C111.151 121.48 110.891 121 110.464 120.68C110.051 120.347 109.524 120.18 108.884 120.18C108.591 120.18 108.278 120.233 107.944 120.34C107.611 120.433 107.304 120.62 107.024 120.9C106.744 121.167 106.511 121.547 106.324 122.04C106.138 122.52 106.044 123.153 106.044 123.94C106.044 124.367 106.091 124.793 106.184 125.22C106.291 125.647 106.451 126.027 106.664 126.36C106.891 126.693 107.178 126.967 107.524 127.18C107.871 127.38 108.291 127.48 108.784 127.48C109.451 127.48 109.998 127.273 110.424 126.86C110.864 126.447 111.138 125.867 111.244 125.12H113.524C113.311 126.467 112.798 127.5 111.984 128.22C111.184 128.927 110.118 129.28 108.784 129.28C107.971 129.28 107.251 129.147 106.624 128.88C106.011 128.6 105.491 128.227 105.064 127.76C104.638 127.28 104.311 126.713 104.084 126.06C103.871 125.407 103.764 124.7 103.764 123.94C103.764 123.167 103.871 122.44 104.084 121.76C104.298 121.08 104.618 120.493 105.044 120C105.471 119.493 105.998 119.1 106.624 118.82C107.264 118.527 108.011 118.38 108.864 118.38C109.464 118.38 110.031 118.46 110.564 118.62C111.111 118.767 111.591 118.993 112.004 119.3C112.431 119.607 112.778 119.993 113.044 120.46C113.311 120.927 113.471 121.48 113.524 122.12H111.244ZM115.438 114.72H117.718V129H115.438V114.72ZM120.262 114.72H122.542V116.88H120.262V114.72ZM120.262 118.66H122.542V129H120.262V118.66ZM132.006 122.12C131.913 121.48 131.653 121 131.226 120.68C130.813 120.347 130.286 120.18 129.646 120.18C129.353 120.18 129.04 120.233 128.706 120.34C128.373 120.433 128.066 120.62 127.786 120.9C127.506 121.167 127.273 121.547 127.086 122.04C126.9 122.52 126.806 123.153 126.806 123.94C126.806 124.367 126.853 124.793 126.946 125.22C127.053 125.647 127.213 126.027 127.426 126.36C127.653 126.693 127.94 126.967 128.286 127.18C128.633 127.38 129.053 127.48 129.546 127.48C130.213 127.48 130.76 127.273 131.186 126.86C131.626 126.447 131.9 125.867 132.006 125.12H134.286C134.073 126.467 133.56 127.5 132.746 128.22C131.946 128.927 130.88 129.28 129.546 129.28C128.733 129.28 128.013 129.147 127.386 128.88C126.773 128.6 126.253 128.227 125.826 127.76C125.4 127.28 125.073 126.713 124.846 126.06C124.633 125.407 124.526 124.7 124.526 123.94C124.526 123.167 124.633 122.44 124.846 121.76C125.06 121.08 125.38 120.493 125.806 120C126.233 119.493 126.76 119.1 127.386 118.82C128.026 118.527 128.773 118.38 129.626 118.38C130.226 118.38 130.793 118.46 131.326 118.62C131.873 118.767 132.353 118.993 132.766 119.3C133.193 119.607 133.54 119.993 133.806 120.46C134.073 120.927 134.233 121.48 134.286 122.12H132.006ZM136.199 114.72H138.479V122.84L142.599 118.66H145.399L141.439 122.46L145.779 129H142.999L139.839 123.98L138.479 125.3V129H136.199V114.72ZM157.188 129.28C156.361 129.28 155.621 129.147 154.968 128.88C154.328 128.6 153.781 128.22 153.328 127.74C152.888 127.26 152.548 126.687 152.308 126.02C152.081 125.353 151.968 124.62 151.968 123.82C151.968 123.033 152.081 122.307 152.308 121.64C152.548 120.973 152.888 120.4 153.328 119.92C153.781 119.44 154.328 119.067 154.968 118.8C155.621 118.52 156.361 118.38 157.188 118.38C158.015 118.38 158.748 118.52 159.388 118.8C160.041 119.067 160.588 119.44 161.028 119.92C161.481 120.4 161.821 120.973 162.048 121.64C162.288 122.307 162.408 123.033 162.408 123.82C162.408 124.62 162.288 125.353 162.048 126.02C161.821 126.687 161.481 127.26 161.028 127.74C160.588 128.22 160.041 128.6 159.388 128.88C158.748 129.147 158.015 129.28 157.188 129.28ZM157.188 127.48C157.695 127.48 158.135 127.373 158.508 127.16C158.881 126.947 159.188 126.667 159.428 126.32C159.668 125.973 159.841 125.587 159.948 125.16C160.068 124.72 160.128 124.273 160.128 123.82C160.128 123.38 160.068 122.94 159.948 122.5C159.841 122.06 159.668 121.673 159.428 121.34C159.188 120.993 158.881 120.713 158.508 120.5C158.135 120.287 157.695 120.18 157.188 120.18C156.681 120.18 156.241 120.287 155.868 120.5C155.495 120.713 155.188 120.993 154.948 121.34C154.708 121.673 154.528 122.06 154.408 122.5C154.301 122.94 154.248 123.38 154.248 123.82C154.248 124.273 154.301 124.72 154.408 125.16C154.528 125.587 154.708 125.973 154.948 126.32C155.188 126.667 155.495 126.947 155.868 127.16C156.241 127.373 156.681 127.48 157.188 127.48ZM164.304 118.66H166.464V120.18L166.504 120.22C166.85 119.647 167.304 119.2 167.864 118.88C168.424 118.547 169.044 118.38 169.724 118.38C170.857 118.38 171.75 118.673 172.404 119.26C173.057 119.847 173.384 120.727 173.384 121.9V129H171.104V122.5C171.077 121.687 170.904 121.1 170.584 120.74C170.264 120.367 169.764 120.18 169.084 120.18C168.697 120.18 168.35 120.253 168.044 120.4C167.737 120.533 167.477 120.727 167.264 120.98C167.05 121.22 166.884 121.507 166.764 121.84C166.644 122.173 166.584 122.527 166.584 122.9V129H164.304V118.66ZM188.454 122.92C188.428 122.56 188.348 122.213 188.214 121.88C188.094 121.547 187.921 121.26 187.694 121.02C187.481 120.767 187.214 120.567 186.894 120.42C186.588 120.26 186.241 120.18 185.854 120.18C185.454 120.18 185.088 120.253 184.754 120.4C184.434 120.533 184.154 120.727 183.914 120.98C183.688 121.22 183.501 121.507 183.354 121.84C183.221 122.173 183.148 122.533 183.134 122.92H188.454ZM183.134 124.42C183.134 124.82 183.188 125.207 183.294 125.58C183.414 125.953 183.588 126.28 183.814 126.56C184.041 126.84 184.328 127.067 184.674 127.24C185.021 127.4 185.434 127.48 185.914 127.48C186.581 127.48 187.114 127.34 187.514 127.06C187.928 126.767 188.234 126.333 188.434 125.76H190.594C190.474 126.32 190.268 126.82 189.974 127.26C189.681 127.7 189.328 128.073 188.914 128.38C188.501 128.673 188.034 128.893 187.514 129.04C187.008 129.2 186.474 129.28 185.914 129.28C185.101 129.28 184.381 129.147 183.754 128.88C183.128 128.613 182.594 128.24 182.154 127.76C181.728 127.28 181.401 126.707 181.174 126.04C180.961 125.373 180.854 124.64 180.854 123.84C180.854 123.107 180.968 122.413 181.194 121.76C181.434 121.093 181.768 120.513 182.194 120.02C182.634 119.513 183.161 119.113 183.774 118.82C184.388 118.527 185.081 118.38 185.854 118.38C186.668 118.38 187.394 118.553 188.034 118.9C188.688 119.233 189.228 119.68 189.654 120.24C190.081 120.8 190.388 121.447 190.574 122.18C190.774 122.9 190.828 123.647 190.734 124.42H183.134ZM201.128 126.7C201.128 126.98 201.161 127.18 201.228 127.3C201.308 127.42 201.454 127.48 201.668 127.48C201.734 127.48 201.814 127.48 201.908 127.48C202.001 127.48 202.108 127.467 202.228 127.44V129.02C202.148 129.047 202.041 129.073 201.908 129.1C201.788 129.14 201.661 129.173 201.528 129.2C201.394 129.227 201.261 129.247 201.128 129.26C200.994 129.273 200.881 129.28 200.788 129.28C200.321 129.28 199.934 129.187 199.628 129C199.321 128.813 199.121 128.487 199.028 128.02C198.574 128.46 198.014 128.78 197.348 128.98C196.694 129.18 196.061 129.28 195.448 129.28C194.981 129.28 194.534 129.213 194.108 129.08C193.681 128.96 193.301 128.78 192.968 128.54C192.648 128.287 192.388 127.973 192.188 127.6C192.001 127.213 191.908 126.767 191.908 126.26C191.908 125.62 192.021 125.1 192.248 124.7C192.488 124.3 192.794 123.987 193.168 123.76C193.554 123.533 193.981 123.373 194.448 123.28C194.928 123.173 195.408 123.093 195.888 123.04C196.301 122.96 196.694 122.907 197.068 122.88C197.441 122.84 197.768 122.78 198.048 122.7C198.341 122.62 198.568 122.5 198.728 122.34C198.901 122.167 198.988 121.913 198.988 121.58C198.988 121.287 198.914 121.047 198.768 120.86C198.634 120.673 198.461 120.533 198.248 120.44C198.048 120.333 197.821 120.267 197.568 120.24C197.314 120.2 197.074 120.18 196.848 120.18C196.208 120.18 195.681 120.313 195.268 120.58C194.854 120.847 194.621 121.26 194.568 121.82H192.288C192.328 121.153 192.488 120.6 192.768 120.16C193.048 119.72 193.401 119.367 193.828 119.1C194.268 118.833 194.761 118.647 195.308 118.54C195.854 118.433 196.414 118.38 196.988 118.38C197.494 118.38 197.994 118.433 198.488 118.54C198.981 118.647 199.421 118.82 199.808 119.06C200.208 119.3 200.528 119.613 200.768 120C201.008 120.373 201.128 120.833 201.128 121.38V126.7ZM198.848 123.82C198.501 124.047 198.074 124.187 197.568 124.24C197.061 124.28 196.554 124.347 196.048 124.44C195.808 124.48 195.574 124.54 195.348 124.62C195.121 124.687 194.921 124.787 194.748 124.92C194.574 125.04 194.434 125.207 194.328 125.42C194.234 125.62 194.188 125.867 194.188 126.16C194.188 126.413 194.261 126.627 194.408 126.8C194.554 126.973 194.728 127.113 194.928 127.22C195.141 127.313 195.368 127.38 195.608 127.42C195.861 127.46 196.088 127.48 196.288 127.48C196.541 127.48 196.814 127.447 197.108 127.38C197.401 127.313 197.674 127.2 197.928 127.04C198.194 126.88 198.414 126.68 198.588 126.44C198.761 126.187 198.848 125.88 198.848 125.52V123.82ZM210.561 122.12C210.468 121.48 210.208 121 209.781 120.68C209.368 120.347 208.841 120.18 208.201 120.18C207.908 120.18 207.594 120.233 207.261 120.34C206.928 120.433 206.621 120.62 206.341 120.9C206.061 121.167 205.828 121.547 205.641 122.04C205.454 122.52 205.361 123.153 205.361 123.94C205.361 124.367 205.408 124.793 205.501 125.22C205.608 125.647 205.768 126.027 205.981 126.36C206.208 126.693 206.494 126.967 206.841 127.18C207.188 127.38 207.608 127.48 208.101 127.48C208.768 127.48 209.314 127.273 209.741 126.86C210.181 126.447 210.454 125.867 210.561 125.12H212.841C212.628 126.467 212.114 127.5 211.301 128.22C210.501 128.927 209.434 129.28 208.101 129.28C207.288 129.28 206.568 129.147 205.941 128.88C205.328 128.6 204.808 128.227 204.381 127.76C203.954 127.28 203.628 126.713 203.401 126.06C203.188 125.407 203.081 124.7 203.081 123.94C203.081 123.167 203.188 122.44 203.401 121.76C203.614 121.08 203.934 120.493 204.361 120C204.788 119.493 205.314 119.1 205.941 118.82C206.581 118.527 207.328 118.38 208.181 118.38C208.781 118.38 209.348 118.46 209.881 118.62C210.428 118.767 210.908 118.993 211.321 119.3C211.748 119.607 212.094 119.993 212.361 120.46C212.628 120.927 212.788 121.48 212.841 122.12H210.561ZM214.694 114.72H216.974V120.02H217.014C217.294 119.553 217.707 119.167 218.254 118.86C218.814 118.54 219.434 118.38 220.114 118.38C221.247 118.38 222.141 118.673 222.794 119.26C223.447 119.847 223.774 120.727 223.774 121.9V129H221.494V122.5C221.467 121.687 221.294 121.1 220.974 120.74C220.654 120.367 220.154 120.18 219.474 120.18C219.087 120.18 218.741 120.253 218.434 120.4C218.127 120.533 217.867 120.727 217.654 120.98C217.441 121.22 217.274 121.507 217.154 121.84C217.034 122.173 216.974 122.527 216.974 122.9V129H214.694V114.72ZM231.805 114.72H234.085V116.88H231.805V114.72ZM231.805 118.66H234.085V129H231.805V118.66ZM236.569 118.66H238.729V120.1H238.789C238.962 119.847 239.149 119.613 239.349 119.4C239.549 119.187 239.769 119.007 240.009 118.86C240.262 118.713 240.549 118.6 240.869 118.52C241.189 118.427 241.556 118.38 241.969 118.38C242.596 118.38 243.176 118.52 243.709 118.8C244.256 119.08 244.642 119.513 244.869 120.1C245.256 119.567 245.702 119.147 246.209 118.84C246.716 118.533 247.349 118.38 248.109 118.38C249.202 118.38 250.049 118.647 250.649 119.18C251.262 119.713 251.569 120.607 251.569 121.86V129H249.289V122.96C249.289 122.547 249.276 122.173 249.249 121.84C249.222 121.493 249.142 121.2 249.009 120.96C248.889 120.707 248.702 120.513 248.449 120.38C248.196 120.247 247.849 120.18 247.409 120.18C246.636 120.18 246.076 120.42 245.729 120.9C245.382 121.38 245.209 122.06 245.209 122.94V129H242.929V122.36C242.929 121.64 242.796 121.1 242.529 120.74C242.276 120.367 241.802 120.18 241.109 120.18C240.816 120.18 240.529 120.24 240.249 120.36C239.982 120.48 239.742 120.653 239.529 120.88C239.329 121.107 239.162 121.387 239.029 121.72C238.909 122.053 238.849 122.433 238.849 122.86V129H236.569V118.66ZM262.631 126.7C262.631 126.98 262.665 127.18 262.731 127.3C262.811 127.42 262.958 127.48 263.171 127.48C263.238 127.48 263.318 127.48 263.411 127.48C263.505 127.48 263.611 127.467 263.731 127.44V129.02C263.651 129.047 263.545 129.073 263.411 129.1C263.291 129.14 263.165 129.173 263.031 129.2C262.898 129.227 262.765 129.247 262.631 129.26C262.498 129.273 262.385 129.28 262.291 129.28C261.825 129.28 261.438 129.187 261.131 129C260.825 128.813 260.625 128.487 260.531 128.02C260.078 128.46 259.518 128.78 258.851 128.98C258.198 129.18 257.565 129.28 256.951 129.28C256.485 129.28 256.038 129.213 255.611 129.08C255.185 128.96 254.805 128.78 254.471 128.54C254.151 128.287 253.891 127.973 253.691 127.6C253.505 127.213 253.411 126.767 253.411 126.26C253.411 125.62 253.525 125.1 253.751 124.7C253.991 124.3 254.298 123.987 254.671 123.76C255.058 123.533 255.485 123.373 255.951 123.28C256.431 123.173 256.911 123.093 257.391 123.04C257.805 122.96 258.198 122.907 258.571 122.88C258.945 122.84 259.271 122.78 259.551 122.7C259.845 122.62 260.071 122.5 260.231 122.34C260.405 122.167 260.491 121.913 260.491 121.58C260.491 121.287 260.418 121.047 260.271 120.86C260.138 120.673 259.965 120.533 259.751 120.44C259.551 120.333 259.325 120.267 259.071 120.24C258.818 120.2 258.578 120.18 258.351 120.18C257.711 120.18 257.185 120.313 256.771 120.58C256.358 120.847 256.125 121.26 256.071 121.82H253.791C253.831 121.153 253.991 120.6 254.271 120.16C254.551 119.72 254.905 119.367 255.331 119.1C255.771 118.833 256.265 118.647 256.811 118.54C257.358 118.433 257.918 118.38 258.491 118.38C258.998 118.38 259.498 118.433 259.991 118.54C260.485 118.647 260.925 118.82 261.311 119.06C261.711 119.3 262.031 119.613 262.271 120C262.511 120.373 262.631 120.833 262.631 121.38V126.7ZM260.351 123.82C260.005 124.047 259.578 124.187 259.071 124.24C258.565 124.28 258.058 124.347 257.551 124.44C257.311 124.48 257.078 124.54 256.851 124.62C256.625 124.687 256.425 124.787 256.251 124.92C256.078 125.04 255.938 125.207 255.831 125.42C255.738 125.62 255.691 125.867 255.691 126.16C255.691 126.413 255.765 126.627 255.911 126.8C256.058 126.973 256.231 127.113 256.431 127.22C256.645 127.313 256.871 127.38 257.111 127.42C257.365 127.46 257.591 127.48 257.791 127.48C258.045 127.48 258.318 127.447 258.611 127.38C258.905 127.313 259.178 127.2 259.431 127.04C259.698 126.88 259.918 126.68 260.091 126.44C260.265 126.187 260.351 125.88 260.351 125.52V123.82ZM274.645 128.46C274.645 130.02 274.205 131.18 273.325 131.94C272.458 132.713 271.205 133.1 269.565 133.1C269.045 133.1 268.518 133.047 267.985 132.94C267.465 132.833 266.985 132.653 266.545 132.4C266.118 132.147 265.758 131.813 265.465 131.4C265.171 130.987 264.998 130.48 264.945 129.88H267.225C267.291 130.2 267.405 130.46 267.565 130.66C267.725 130.86 267.911 131.013 268.125 131.12C268.351 131.24 268.598 131.313 268.865 131.34C269.131 131.38 269.411 131.4 269.705 131.4C270.625 131.4 271.298 131.173 271.725 130.72C272.151 130.267 272.365 129.613 272.365 128.76V127.18H272.325C272.005 127.753 271.565 128.2 271.005 128.52C270.458 128.84 269.865 129 269.225 129C268.398 129 267.691 128.86 267.105 128.58C266.531 128.287 266.051 127.893 265.665 127.4C265.291 126.893 265.018 126.313 264.845 125.66C264.671 125.007 264.585 124.307 264.585 123.56C264.585 122.867 264.691 122.207 264.905 121.58C265.118 120.953 265.425 120.407 265.825 119.94C266.225 119.46 266.711 119.08 267.285 118.8C267.871 118.52 268.531 118.38 269.265 118.38C269.918 118.38 270.518 118.52 271.065 118.8C271.611 119.067 272.031 119.493 272.325 120.08H272.365V118.66H274.645V128.46ZM269.585 127.2C270.091 127.2 270.518 127.1 270.865 126.9C271.225 126.687 271.511 126.413 271.725 126.08C271.951 125.733 272.111 125.347 272.205 124.92C272.311 124.48 272.365 124.04 272.365 123.6C272.365 123.16 272.311 122.733 272.205 122.32C272.098 121.907 271.931 121.54 271.705 121.22C271.491 120.9 271.205 120.647 270.845 120.46C270.498 120.273 270.078 120.18 269.585 120.18C269.078 120.18 268.651 120.287 268.305 120.5C267.958 120.713 267.678 120.993 267.465 121.34C267.251 121.673 267.098 122.06 267.005 122.5C266.911 122.927 266.865 123.353 266.865 123.78C266.865 124.207 266.918 124.627 267.025 125.04C267.131 125.44 267.291 125.8 267.505 126.12C267.731 126.44 268.011 126.7 268.345 126.9C268.691 127.1 269.105 127.2 269.585 127.2ZM284.04 122.92C284.014 122.56 283.934 122.213 283.8 121.88C283.68 121.547 283.507 121.26 283.28 121.02C283.067 120.767 282.8 120.567 282.48 120.42C282.174 120.26 281.827 120.18 281.44 120.18C281.04 120.18 280.674 120.253 280.34 120.4C280.02 120.533 279.74 120.727 279.5 120.98C279.274 121.22 279.087 121.507 278.94 121.84C278.807 122.173 278.734 122.533 278.72 122.92H284.04ZM278.72 124.42C278.72 124.82 278.774 125.207 278.88 125.58C279 125.953 279.174 126.28 279.4 126.56C279.627 126.84 279.914 127.067 280.26 127.24C280.607 127.4 281.02 127.48 281.5 127.48C282.167 127.48 282.7 127.34 283.1 127.06C283.514 126.767 283.82 126.333 284.02 125.76H286.18C286.06 126.32 285.854 126.82 285.56 127.26C285.267 127.7 284.914 128.073 284.5 128.38C284.087 128.673 283.62 128.893 283.1 129.04C282.594 129.2 282.06 129.28 281.5 129.28C280.687 129.28 279.967 129.147 279.34 128.88C278.714 128.613 278.18 128.24 277.74 127.76C277.314 127.28 276.987 126.707 276.76 126.04C276.547 125.373 276.44 124.64 276.44 123.84C276.44 123.107 276.554 122.413 276.78 121.76C277.02 121.093 277.354 120.513 277.78 120.02C278.22 119.513 278.747 119.113 279.36 118.82C279.974 118.527 280.667 118.38 281.44 118.38C282.254 118.38 282.98 118.553 283.62 118.9C284.274 119.233 284.814 119.68 285.24 120.24C285.667 120.8 285.974 121.447 286.16 122.18C286.36 122.9 286.414 123.647 286.32 124.42H278.72ZM292.58 118.66H294.3V115.56H296.58V118.66H298.64V120.36H296.58V125.88C296.58 126.12 296.587 126.327 296.6 126.5C296.627 126.673 296.673 126.82 296.74 126.94C296.82 127.06 296.933 127.153 297.08 127.22C297.227 127.273 297.427 127.3 297.68 127.3C297.84 127.3 298 127.3 298.16 127.3C298.32 127.287 298.48 127.26 298.64 127.22V128.98C298.387 129.007 298.14 129.033 297.9 129.06C297.66 129.087 297.413 129.1 297.16 129.1C296.56 129.1 296.073 129.047 295.7 128.94C295.34 128.82 295.053 128.653 294.84 128.44C294.64 128.213 294.5 127.933 294.42 127.6C294.353 127.267 294.313 126.887 294.3 126.46V120.36H292.58V118.66ZM305.02 129.28C304.193 129.28 303.453 129.147 302.8 128.88C302.16 128.6 301.613 128.22 301.16 127.74C300.72 127.26 300.38 126.687 300.14 126.02C299.913 125.353 299.8 124.62 299.8 123.82C299.8 123.033 299.913 122.307 300.14 121.64C300.38 120.973 300.72 120.4 301.16 119.92C301.613 119.44 302.16 119.067 302.8 118.8C303.453 118.52 304.193 118.38 305.02 118.38C305.847 118.38 306.58 118.52 307.22 118.8C307.873 119.067 308.42 119.44 308.86 119.92C309.313 120.4 309.653 120.973 309.88 121.64C310.12 122.307 310.24 123.033 310.24 123.82C310.24 124.62 310.12 125.353 309.88 126.02C309.653 126.687 309.313 127.26 308.86 127.74C308.42 128.22 307.873 128.6 307.22 128.88C306.58 129.147 305.847 129.28 305.02 129.28ZM305.02 127.48C305.527 127.48 305.967 127.373 306.34 127.16C306.713 126.947 307.02 126.667 307.26 126.32C307.5 125.973 307.673 125.587 307.78 125.16C307.9 124.72 307.96 124.273 307.96 123.82C307.96 123.38 307.9 122.94 307.78 122.5C307.673 122.06 307.5 121.673 307.26 121.34C307.02 120.993 306.713 120.713 306.34 120.5C305.967 120.287 305.527 120.18 305.02 120.18C304.513 120.18 304.073 120.287 303.7 120.5C303.327 120.713 303.02 120.993 302.78 121.34C302.54 121.673 302.36 122.06 302.24 122.5C302.133 122.94 302.08 123.38 302.08 123.82C302.08 124.273 302.133 124.72 302.24 125.16C302.36 125.587 302.54 125.973 302.78 126.32C303.02 126.667 303.327 126.947 303.7 127.16C304.073 127.373 304.513 127.48 305.02 127.48ZM118.649 152.46C118.649 154.02 118.209 155.18 117.329 155.94C116.462 156.713 115.209 157.1 113.569 157.1C113.049 157.1 112.522 157.047 111.989 156.94C111.469 156.833 110.989 156.653 110.549 156.4C110.122 156.147 109.762 155.813 109.469 155.4C109.175 154.987 109.002 154.48 108.949 153.88H111.229C111.295 154.2 111.409 154.46 111.569 154.66C111.729 154.86 111.915 155.013 112.129 155.12C112.355 155.24 112.602 155.313 112.869 155.34C113.135 155.38 113.415 155.4 113.709 155.4C114.629 155.4 115.302 155.173 115.729 154.72C116.155 154.267 116.369 153.613 116.369 152.76V151.18H116.329C116.009 151.753 115.569 152.2 115.009 152.52C114.462 152.84 113.869 153 113.229 153C112.402 153 111.695 152.86 111.109 152.58C110.535 152.287 110.055 151.893 109.669 151.4C109.295 150.893 109.022 150.313 108.849 149.66C108.675 149.007 108.589 148.307 108.589 147.56C108.589 146.867 108.695 146.207 108.909 145.58C109.122 144.953 109.429 144.407 109.829 143.94C110.229 143.46 110.715 143.08 111.289 142.8C111.875 142.52 112.535 142.38 113.269 142.38C113.922 142.38 114.522 142.52 115.069 142.8C115.615 143.067 116.035 143.493 116.329 144.08H116.369V142.66H118.649V152.46ZM113.589 151.2C114.095 151.2 114.522 151.1 114.869 150.9C115.229 150.687 115.515 150.413 115.729 150.08C115.955 149.733 116.115 149.347 116.209 148.92C116.315 148.48 116.369 148.04 116.369 147.6C116.369 147.16 116.315 146.733 116.209 146.32C116.102 145.907 115.935 145.54 115.709 145.22C115.495 144.9 115.209 144.647 114.849 144.46C114.502 144.273 114.082 144.18 113.589 144.18C113.082 144.18 112.655 144.287 112.309 144.5C111.962 144.713 111.682 144.993 111.469 145.34C111.255 145.673 111.102 146.06 111.009 146.5C110.915 146.927 110.869 147.353 110.869 147.78C110.869 148.207 110.922 148.627 111.029 149.04C111.135 149.44 111.295 149.8 111.509 150.12C111.735 150.44 112.015 150.7 112.349 150.9C112.695 151.1 113.109 151.2 113.589 151.2ZM128.044 146.92C128.017 146.56 127.937 146.213 127.804 145.88C127.684 145.547 127.511 145.26 127.284 145.02C127.071 144.767 126.804 144.567 126.484 144.42C126.177 144.26 125.831 144.18 125.444 144.18C125.044 144.18 124.677 144.253 124.344 144.4C124.024 144.533 123.744 144.727 123.504 144.98C123.277 145.22 123.091 145.507 122.944 145.84C122.811 146.173 122.737 146.533 122.724 146.92H128.044ZM122.724 148.42C122.724 148.82 122.777 149.207 122.884 149.58C123.004 149.953 123.177 150.28 123.404 150.56C123.631 150.84 123.917 151.067 124.264 151.24C124.611 151.4 125.024 151.48 125.504 151.48C126.171 151.48 126.704 151.34 127.104 151.06C127.517 150.767 127.824 150.333 128.024 149.76H130.184C130.064 150.32 129.857 150.82 129.564 151.26C129.271 151.7 128.917 152.073 128.504 152.38C128.091 152.673 127.624 152.893 127.104 153.04C126.597 153.2 126.064 153.28 125.504 153.28C124.691 153.28 123.971 153.147 123.344 152.88C122.717 152.613 122.184 152.24 121.744 151.76C121.317 151.28 120.991 150.707 120.764 150.04C120.551 149.373 120.444 148.64 120.444 147.84C120.444 147.107 120.557 146.413 120.784 145.76C121.024 145.093 121.357 144.513 121.784 144.02C122.224 143.513 122.751 143.113 123.364 142.82C123.977 142.527 124.671 142.38 125.444 142.38C126.257 142.38 126.984 142.553 127.624 142.9C128.277 143.233 128.817 143.68 129.244 144.24C129.671 144.8 129.977 145.447 130.164 146.18C130.364 146.9 130.417 147.647 130.324 148.42H122.724ZM131.017 142.66H132.737V139.56H135.017V142.66H137.077V144.36H135.017V149.88C135.017 150.12 135.024 150.327 135.037 150.5C135.064 150.673 135.111 150.82 135.177 150.94C135.257 151.06 135.371 151.153 135.517 151.22C135.664 151.273 135.864 151.3 136.117 151.3C136.277 151.3 136.437 151.3 136.597 151.3C136.757 151.287 136.917 151.26 137.077 151.22V152.98C136.824 153.007 136.577 153.033 136.337 153.06C136.097 153.087 135.851 153.1 135.597 153.1C134.997 153.1 134.511 153.047 134.137 152.94C133.777 152.82 133.491 152.653 133.277 152.44C133.077 152.213 132.937 151.933 132.857 151.6C132.791 151.267 132.751 150.887 132.737 150.46V144.36H131.017V142.66ZM144.284 142.66H146.444V144.1H146.504C146.677 143.847 146.864 143.613 147.064 143.4C147.264 143.187 147.484 143.007 147.724 142.86C147.977 142.713 148.264 142.6 148.584 142.52C148.904 142.427 149.271 142.38 149.684 142.38C150.311 142.38 150.891 142.52 151.424 142.8C151.971 143.08 152.357 143.513 152.584 144.1C152.971 143.567 153.417 143.147 153.924 142.84C154.431 142.533 155.064 142.38 155.824 142.38C156.917 142.38 157.764 142.647 158.364 143.18C158.977 143.713 159.284 144.607 159.284 145.86V153H157.004V146.96C157.004 146.547 156.991 146.173 156.964 145.84C156.937 145.493 156.857 145.2 156.724 144.96C156.604 144.707 156.417 144.513 156.164 144.38C155.911 144.247 155.564 144.18 155.124 144.18C154.351 144.18 153.791 144.42 153.444 144.9C153.097 145.38 152.924 146.06 152.924 146.94V153H150.644V146.36C150.644 145.64 150.511 145.1 150.244 144.74C149.991 144.367 149.517 144.18 148.824 144.18C148.531 144.18 148.244 144.24 147.964 144.36C147.697 144.48 147.457 144.653 147.244 144.88C147.044 145.107 146.877 145.387 146.744 145.72C146.624 146.053 146.564 146.433 146.564 146.86V153H144.284V142.66ZM166.426 153.28C165.6 153.28 164.86 153.147 164.206 152.88C163.566 152.6 163.02 152.22 162.566 151.74C162.126 151.26 161.786 150.687 161.546 150.02C161.32 149.353 161.206 148.62 161.206 147.82C161.206 147.033 161.32 146.307 161.546 145.64C161.786 144.973 162.126 144.4 162.566 143.92C163.02 143.44 163.566 143.067 164.206 142.8C164.86 142.52 165.6 142.38 166.426 142.38C167.253 142.38 167.986 142.52 168.626 142.8C169.28 143.067 169.826 143.44 170.266 143.92C170.72 144.4 171.06 144.973 171.286 145.64C171.526 146.307 171.646 147.033 171.646 147.82C171.646 148.62 171.526 149.353 171.286 150.02C171.06 150.687 170.72 151.26 170.266 151.74C169.826 152.22 169.28 152.6 168.626 152.88C167.986 153.147 167.253 153.28 166.426 153.28ZM166.426 151.48C166.933 151.48 167.373 151.373 167.746 151.16C168.12 150.947 168.426 150.667 168.666 150.32C168.906 149.973 169.08 149.587 169.186 149.16C169.306 148.72 169.366 148.273 169.366 147.82C169.366 147.38 169.306 146.94 169.186 146.5C169.08 146.06 168.906 145.673 168.666 145.34C168.426 144.993 168.12 144.713 167.746 144.5C167.373 144.287 166.933 144.18 166.426 144.18C165.92 144.18 165.48 144.287 165.106 144.5C164.733 144.713 164.426 144.993 164.186 145.34C163.946 145.673 163.766 146.06 163.646 146.5C163.54 146.94 163.486 147.38 163.486 147.82C163.486 148.273 163.54 148.72 163.646 149.16C163.766 149.587 163.946 149.973 164.186 150.32C164.426 150.667 164.733 150.947 165.106 151.16C165.48 151.373 165.92 151.48 166.426 151.48ZM173.542 142.66H175.682V144.66H175.722C175.788 144.38 175.915 144.107 176.102 143.84C176.302 143.573 176.535 143.333 176.802 143.12C177.082 142.893 177.388 142.713 177.722 142.58C178.055 142.447 178.395 142.38 178.742 142.38C179.008 142.38 179.188 142.387 179.282 142.4C179.388 142.413 179.495 142.427 179.602 142.44V144.64C179.442 144.613 179.275 144.593 179.102 144.58C178.942 144.553 178.782 144.54 178.622 144.54C178.235 144.54 177.868 144.62 177.522 144.78C177.188 144.927 176.895 145.153 176.642 145.46C176.388 145.753 176.188 146.12 176.042 146.56C175.895 147 175.822 147.507 175.822 148.08V153H173.542V142.66ZM187.321 146.92C187.295 146.56 187.215 146.213 187.081 145.88C186.961 145.547 186.788 145.26 186.561 145.02C186.348 144.767 186.081 144.567 185.761 144.42C185.455 144.26 185.108 144.18 184.721 144.18C184.321 144.18 183.955 144.253 183.621 144.4C183.301 144.533 183.021 144.727 182.781 144.98C182.555 145.22 182.368 145.507 182.221 145.84C182.088 146.173 182.015 146.533 182.001 146.92H187.321ZM182.001 148.42C182.001 148.82 182.055 149.207 182.161 149.58C182.281 149.953 182.455 150.28 182.681 150.56C182.908 150.84 183.195 151.067 183.541 151.24C183.888 151.4 184.301 151.48 184.781 151.48C185.448 151.48 185.981 151.34 186.381 151.06C186.795 150.767 187.101 150.333 187.301 149.76H189.461C189.341 150.32 189.135 150.82 188.841 151.26C188.548 151.7 188.195 152.073 187.781 152.38C187.368 152.673 186.901 152.893 186.381 153.04C185.875 153.2 185.341 153.28 184.781 153.28C183.968 153.28 183.248 153.147 182.621 152.88C181.995 152.613 181.461 152.24 181.021 151.76C180.595 151.28 180.268 150.707 180.041 150.04C179.828 149.373 179.721 148.64 179.721 147.84C179.721 147.107 179.835 146.413 180.061 145.76C180.301 145.093 180.635 144.513 181.061 144.02C181.501 143.513 182.028 143.113 182.641 142.82C183.255 142.527 183.948 142.38 184.721 142.38C185.535 142.38 186.261 142.553 186.901 142.9C187.555 143.233 188.095 143.68 188.521 144.24C188.948 144.8 189.255 145.447 189.441 146.18C189.641 146.9 189.695 147.647 189.601 148.42H182.001ZM196.961 138.72H199.241V140.88H196.961V138.72ZM196.961 142.66H199.241V153H196.961V142.66ZM201.725 142.66H203.885V144.18L203.925 144.22C204.272 143.647 204.725 143.2 205.285 142.88C205.845 142.547 206.465 142.38 207.145 142.38C208.279 142.38 209.172 142.673 209.825 143.26C210.479 143.847 210.805 144.727 210.805 145.9V153H208.525V146.5C208.499 145.687 208.325 145.1 208.005 144.74C207.685 144.367 207.185 144.18 206.505 144.18C206.119 144.18 205.772 144.253 205.465 144.4C205.159 144.533 204.899 144.727 204.685 144.98C204.472 145.22 204.305 145.507 204.185 145.84C204.065 146.173 204.005 146.527 204.005 146.9V153H201.725V142.66ZM212.19 142.66H213.89V141.8C213.89 141.147 213.97 140.62 214.13 140.22C214.29 139.807 214.503 139.493 214.77 139.28C215.036 139.053 215.336 138.907 215.67 138.84C216.016 138.76 216.376 138.72 216.75 138.72C217.483 138.72 218.016 138.767 218.35 138.86V140.64C218.203 140.6 218.043 140.573 217.87 140.56C217.71 140.533 217.516 140.52 217.29 140.52C216.983 140.52 216.716 140.593 216.49 140.74C216.276 140.887 216.17 141.173 216.17 141.6V142.66H218.11V144.36H216.17V153H213.89V144.36H212.19V142.66ZM224.258 153.28C223.432 153.28 222.692 153.147 222.038 152.88C221.398 152.6 220.852 152.22 220.398 151.74C219.958 151.26 219.618 150.687 219.378 150.02C219.152 149.353 219.038 148.62 219.038 147.82C219.038 147.033 219.152 146.307 219.378 145.64C219.618 144.973 219.958 144.4 220.398 143.92C220.852 143.44 221.398 143.067 222.038 142.8C222.692 142.52 223.432 142.38 224.258 142.38C225.085 142.38 225.818 142.52 226.458 142.8C227.112 143.067 227.658 143.44 228.098 143.92C228.552 144.4 228.892 144.973 229.118 145.64C229.358 146.307 229.478 147.033 229.478 147.82C229.478 148.62 229.358 149.353 229.118 150.02C228.892 150.687 228.552 151.26 228.098 151.74C227.658 152.22 227.112 152.6 226.458 152.88C225.818 153.147 225.085 153.28 224.258 153.28ZM224.258 151.48C224.765 151.48 225.205 151.373 225.578 151.16C225.952 150.947 226.258 150.667 226.498 150.32C226.738 149.973 226.912 149.587 227.018 149.16C227.138 148.72 227.198 148.273 227.198 147.82C227.198 147.38 227.138 146.94 227.018 146.5C226.912 146.06 226.738 145.673 226.498 145.34C226.258 144.993 225.952 144.713 225.578 144.5C225.205 144.287 224.765 144.18 224.258 144.18C223.752 144.18 223.312 144.287 222.938 144.5C222.565 144.713 222.258 144.993 222.018 145.34C221.778 145.673 221.598 146.06 221.478 146.5C221.372 146.94 221.318 147.38 221.318 147.82C221.318 148.273 221.372 148.72 221.478 149.16C221.598 149.587 221.778 149.973 222.018 150.32C222.258 150.667 222.565 150.947 222.938 151.16C223.312 151.373 223.752 151.48 224.258 151.48ZM231.374 142.66H233.514V144.66H233.554C233.62 144.38 233.747 144.107 233.934 143.84C234.134 143.573 234.367 143.333 234.634 143.12C234.914 142.893 235.22 142.713 235.554 142.58C235.887 142.447 236.227 142.38 236.574 142.38C236.84 142.38 237.02 142.387 237.114 142.4C237.22 142.413 237.327 142.427 237.434 142.44V144.64C237.274 144.613 237.107 144.593 236.934 144.58C236.774 144.553 236.614 144.54 236.454 144.54C236.067 144.54 235.7 144.62 235.354 144.78C235.02 144.927 234.727 145.153 234.474 145.46C234.22 145.753 234.02 146.12 233.874 146.56C233.727 147 233.654 147.507 233.654 148.08V153H231.374V142.66ZM238.405 142.66H240.565V144.1H240.625C240.798 143.847 240.985 143.613 241.185 143.4C241.385 143.187 241.605 143.007 241.845 142.86C242.098 142.713 242.385 142.6 242.705 142.52C243.025 142.427 243.392 142.38 243.805 142.38C244.432 142.38 245.012 142.52 245.545 142.8C246.092 143.08 246.478 143.513 246.705 144.1C247.092 143.567 247.538 143.147 248.045 142.84C248.552 142.533 249.185 142.38 249.945 142.38C251.038 142.38 251.885 142.647 252.485 143.18C253.098 143.713 253.405 144.607 253.405 145.86V153H251.125V146.96C251.125 146.547 251.112 146.173 251.085 145.84C251.058 145.493 250.978 145.2 250.845 144.96C250.725 144.707 250.538 144.513 250.285 144.38C250.032 144.247 249.685 144.18 249.245 144.18C248.472 144.18 247.912 144.42 247.565 144.9C247.218 145.38 247.045 146.06 247.045 146.94V153H244.765V146.36C244.765 145.64 244.632 145.1 244.365 144.74C244.112 144.367 243.638 144.18 242.945 144.18C242.652 144.18 242.365 144.24 242.085 144.36C241.818 144.48 241.578 144.653 241.365 144.88C241.165 145.107 240.998 145.387 240.865 145.72C240.745 146.053 240.685 146.433 240.685 146.86V153H238.405V142.66ZM264.467 150.7C264.467 150.98 264.501 151.18 264.567 151.3C264.647 151.42 264.794 151.48 265.007 151.48C265.074 151.48 265.154 151.48 265.247 151.48C265.341 151.48 265.447 151.467 265.567 151.44V153.02C265.487 153.047 265.381 153.073 265.247 153.1C265.127 153.14 265.001 153.173 264.867 153.2C264.734 153.227 264.601 153.247 264.467 153.26C264.334 153.273 264.221 153.28 264.127 153.28C263.661 153.28 263.274 153.187 262.967 153C262.661 152.813 262.461 152.487 262.367 152.02C261.914 152.46 261.354 152.78 260.687 152.98C260.034 153.18 259.401 153.28 258.787 153.28C258.321 153.28 257.874 153.213 257.447 153.08C257.021 152.96 256.641 152.78 256.307 152.54C255.987 152.287 255.727 151.973 255.527 151.6C255.341 151.213 255.247 150.767 255.247 150.26C255.247 149.62 255.361 149.1 255.587 148.7C255.827 148.3 256.134 147.987 256.507 147.76C256.894 147.533 257.321 147.373 257.787 147.28C258.267 147.173 258.747 147.093 259.227 147.04C259.641 146.96 260.034 146.907 260.407 146.88C260.781 146.84 261.107 146.78 261.387 146.7C261.681 146.62 261.907 146.5 262.067 146.34C262.241 146.167 262.327 145.913 262.327 145.58C262.327 145.287 262.254 145.047 262.107 144.86C261.974 144.673 261.801 144.533 261.587 144.44C261.387 144.333 261.161 144.267 260.907 144.24C260.654 144.2 260.414 144.18 260.187 144.18C259.547 144.18 259.021 144.313 258.607 144.58C258.194 144.847 257.961 145.26 257.907 145.82H255.627C255.667 145.153 255.827 144.6 256.107 144.16C256.387 143.72 256.741 143.367 257.167 143.1C257.607 142.833 258.101 142.647 258.647 142.54C259.194 142.433 259.754 142.38 260.327 142.38C260.834 142.38 261.334 142.433 261.827 142.54C262.321 142.647 262.761 142.82 263.147 143.06C263.547 143.3 263.867 143.613 264.107 144C264.347 144.373 264.467 144.833 264.467 145.38V150.7ZM262.187 147.82C261.841 148.047 261.414 148.187 260.907 148.24C260.401 148.28 259.894 148.347 259.387 148.44C259.147 148.48 258.914 148.54 258.687 148.62C258.461 148.687 258.261 148.787 258.087 148.92C257.914 149.04 257.774 149.207 257.667 149.42C257.574 149.62 257.527 149.867 257.527 150.16C257.527 150.413 257.601 150.627 257.747 150.8C257.894 150.973 258.067 151.113 258.267 151.22C258.481 151.313 258.707 151.38 258.947 151.42C259.201 151.46 259.427 151.48 259.627 151.48C259.881 151.48 260.154 151.447 260.447 151.38C260.741 151.313 261.014 151.2 261.267 151.04C261.534 150.88 261.754 150.68 261.927 150.44C262.101 150.187 262.187 149.88 262.187 149.52V147.82ZM265.881 142.66H267.601V139.56H269.881V142.66H271.941V144.36H269.881V149.88C269.881 150.12 269.887 150.327 269.901 150.5C269.927 150.673 269.974 150.82 270.041 150.94C270.121 151.06 270.234 151.153 270.381 151.22C270.527 151.273 270.727 151.3 270.981 151.3C271.141 151.3 271.301 151.3 271.461 151.3C271.621 151.287 271.781 151.26 271.941 151.22V152.98C271.687 153.007 271.441 153.033 271.201 153.06C270.961 153.087 270.714 153.1 270.461 153.1C269.861 153.1 269.374 153.047 269.001 152.94C268.641 152.82 268.354 152.653 268.141 152.44C267.941 152.213 267.801 151.933 267.721 151.6C267.654 151.267 267.614 150.887 267.601 150.46V144.36H265.881V142.66ZM273.641 138.72H275.921V140.88H273.641V138.72ZM273.641 142.66H275.921V153H273.641V142.66ZM283.145 153.28C282.318 153.28 281.578 153.147 280.925 152.88C280.285 152.6 279.738 152.22 279.285 151.74C278.845 151.26 278.505 150.687 278.265 150.02C278.038 149.353 277.925 148.62 277.925 147.82C277.925 147.033 278.038 146.307 278.265 145.64C278.505 144.973 278.845 144.4 279.285 143.92C279.738 143.44 280.285 143.067 280.925 142.8C281.578 142.52 282.318 142.38 283.145 142.38C283.972 142.38 284.705 142.52 285.345 142.8C285.998 143.067 286.545 143.44 286.985 143.92C287.438 144.4 287.778 144.973 288.005 145.64C288.245 146.307 288.365 147.033 288.365 147.82C288.365 148.62 288.245 149.353 288.005 150.02C287.778 150.687 287.438 151.26 286.985 151.74C286.545 152.22 285.998 152.6 285.345 152.88C284.705 153.147 283.972 153.28 283.145 153.28ZM283.145 151.48C283.652 151.48 284.092 151.373 284.465 151.16C284.838 150.947 285.145 150.667 285.385 150.32C285.625 149.973 285.798 149.587 285.905 149.16C286.025 148.72 286.085 148.273 286.085 147.82C286.085 147.38 286.025 146.94 285.905 146.5C285.798 146.06 285.625 145.673 285.385 145.34C285.145 144.993 284.838 144.713 284.465 144.5C284.092 144.287 283.652 144.18 283.145 144.18C282.638 144.18 282.198 144.287 281.825 144.5C281.452 144.713 281.145 144.993 280.905 145.34C280.665 145.673 280.485 146.06 280.365 146.5C280.258 146.94 280.205 147.38 280.205 147.82C280.205 148.273 280.258 148.72 280.365 149.16C280.485 149.587 280.665 149.973 280.905 150.32C281.145 150.667 281.452 150.947 281.825 151.16C282.198 151.373 282.638 151.48 283.145 151.48ZM290.261 142.66H292.421V144.18L292.461 144.22C292.807 143.647 293.261 143.2 293.821 142.88C294.381 142.547 295.001 142.38 295.681 142.38C296.814 142.38 297.707 142.673 298.361 143.26C299.014 143.847 299.341 144.727 299.341 145.9V153H297.061V146.5C297.034 145.687 296.861 145.1 296.541 144.74C296.221 144.367 295.721 144.18 295.041 144.18C294.654 144.18 294.307 144.253 294.001 144.4C293.694 144.533 293.434 144.727 293.221 144.98C293.007 145.22 292.841 145.507 292.721 145.84C292.601 146.173 292.541 146.527 292.541 146.9V153H290.261V142.66ZM301.985 150.5H304.665V153H301.985V150.5ZM302.085 138.72H304.585V142.84L303.925 149.02H302.745L302.085 142.84V138.72Z" fill="#32323E"/>
</svg>
