<svg width="375" height="262" viewBox="0 0 375 262" fill="none" xmlns="http://www.w3.org/2000/svg">
<path fill-rule="evenodd" clip-rule="evenodd" d="M374.386 47H0V262H374.386L374.386 261.948H227.702L374.386 188.713L374.386 47Z" fill="#9FA0AA"/>
<path d="M228 262L374 189H228V262Z" fill="#80818E"/>
<path fill-rule="evenodd" clip-rule="evenodd" d="M266.526 26.6548L270.653 23.7571L270.605 23.4615L266.825 23.2968L269.91 21.131L265.988 20.9601L269.002 18.844L266.188 18.7214L269.202 16.6053L266.387 16.4827L269.153 14.5411L269.114 14.3013L265.55 14.146L268.635 11.9802L264.713 11.8093L268.005 9.49785L99.6627 41.0749L103.738 41.2526L100.653 43.4183L104.575 43.5893L101.49 45.755L105.412 45.926L102.398 48.042L105.213 48.1647L102.199 50.2807L105.013 50.4034L101.928 52.5692L105.85 52.7401L101.329 55.9142L105.551 56.0982L102.466 58.2639L106.388 58.4348L103.303 60.6006L107.225 60.7715L102.951 63.772L106.614 63.9316L103.529 66.0974L107.451 66.2683L104.366 68.4341L108.288 68.605L105.274 70.7211L108.088 70.8438L105.074 72.9598L107.888 73.0824L104.804 75.2482L108.726 75.4192L104.498 78.3871L104.534 78.6076L108.426 78.7772L105.341 80.943L109.263 81.1139L106.178 83.2797L110.1 83.4506L108.683 84.4457L271.119 53.9765L274.16 51.8415L270.238 51.6706L273.323 49.5048L269.401 49.3339L273.922 46.1598L269.701 45.9759L272.786 43.8101L268.864 43.6391L271.878 41.5231L269.063 41.4004L272.077 39.2844L269.263 39.1617L272.348 36.996L268.426 36.825L271.511 34.6593L267.588 34.4883L271.862 31.4879L268.2 31.3282L271.285 29.1625L267.363 28.9915L270.448 26.8258L266.526 26.6548Z" fill="#CCCCCC" fill-opacity="0.42"/>
<path d="M106.625 138.12C106.532 137.48 106.272 137 105.845 136.68C105.432 136.347 104.905 136.18 104.265 136.18C103.972 136.18 103.659 136.233 103.325 136.34C102.992 136.433 102.685 136.62 102.405 136.9C102.125 137.167 101.892 137.547 101.705 138.04C101.519 138.52 101.425 139.153 101.425 139.94C101.425 140.367 101.472 140.793 101.565 141.22C101.672 141.647 101.832 142.027 102.045 142.36C102.272 142.693 102.559 142.967 102.905 143.18C103.252 143.38 103.672 143.48 104.165 143.48C104.832 143.48 105.379 143.273 105.805 142.86C106.245 142.447 106.519 141.867 106.625 141.12H108.905C108.692 142.467 108.179 143.5 107.365 144.22C106.565 144.927 105.499 145.28 104.165 145.28C103.352 145.28 102.632 145.147 102.005 144.88C101.392 144.6 100.872 144.227 100.445 143.76C100.019 143.28 99.692 142.713 99.4653 142.06C99.252 141.407 99.1453 140.7 99.1453 139.94C99.1453 139.167 99.252 138.44 99.4653 137.76C99.6786 137.08 99.9986 136.493 100.425 136C100.852 135.493 101.379 135.1 102.005 134.82C102.645 134.527 103.392 134.38 104.245 134.38C104.845 134.38 105.412 134.46 105.945 134.62C106.492 134.767 106.972 134.993 107.385 135.3C107.812 135.607 108.159 135.993 108.425 136.46C108.692 136.927 108.852 137.48 108.905 138.12H106.625ZM110.819 130.72H113.099V145H110.819V130.72ZM115.643 130.72H117.923V132.88H115.643V130.72ZM115.643 134.66H117.923V145H115.643V134.66ZM127.387 138.12C127.294 137.48 127.034 137 126.607 136.68C126.194 136.347 125.667 136.18 125.027 136.18C124.734 136.18 124.42 136.233 124.087 136.34C123.754 136.433 123.447 136.62 123.167 136.9C122.887 137.167 122.654 137.547 122.467 138.04C122.28 138.52 122.187 139.153 122.187 139.94C122.187 140.367 122.234 140.793 122.327 141.22C122.434 141.647 122.594 142.027 122.807 142.36C123.034 142.693 123.32 142.967 123.667 143.18C124.014 143.38 124.434 143.48 124.927 143.48C125.594 143.48 126.14 143.273 126.567 142.86C127.007 142.447 127.28 141.867 127.387 141.12H129.667C129.454 142.467 128.94 143.5 128.127 144.22C127.327 144.927 126.26 145.28 124.927 145.28C124.114 145.28 123.394 145.147 122.767 144.88C122.154 144.6 121.634 144.227 121.207 143.76C120.78 143.28 120.454 142.713 120.227 142.06C120.014 141.407 119.907 140.7 119.907 139.94C119.907 139.167 120.014 138.44 120.227 137.76C120.44 137.08 120.76 136.493 121.187 136C121.614 135.493 122.14 135.1 122.767 134.82C123.407 134.527 124.154 134.38 125.007 134.38C125.607 134.38 126.174 134.46 126.707 134.62C127.254 134.767 127.734 134.993 128.147 135.3C128.574 135.607 128.92 135.993 129.187 136.46C129.454 136.927 129.614 137.48 129.667 138.12H127.387ZM131.58 130.72H133.86V138.84L137.98 134.66H140.78L136.82 138.46L141.16 145H138.38L135.22 139.98L133.86 141.3V145H131.58V130.72ZM152.569 145.28C151.742 145.28 151.002 145.147 150.349 144.88C149.709 144.6 149.162 144.22 148.709 143.74C148.269 143.26 147.929 142.687 147.689 142.02C147.462 141.353 147.349 140.62 147.349 139.82C147.349 139.033 147.462 138.307 147.689 137.64C147.929 136.973 148.269 136.4 148.709 135.92C149.162 135.44 149.709 135.067 150.349 134.8C151.002 134.52 151.742 134.38 152.569 134.38C153.396 134.38 154.129 134.52 154.769 134.8C155.422 135.067 155.969 135.44 156.409 135.92C156.862 136.4 157.202 136.973 157.429 137.64C157.669 138.307 157.789 139.033 157.789 139.82C157.789 140.62 157.669 141.353 157.429 142.02C157.202 142.687 156.862 143.26 156.409 143.74C155.969 144.22 155.422 144.6 154.769 144.88C154.129 145.147 153.396 145.28 152.569 145.28ZM152.569 143.48C153.076 143.48 153.516 143.373 153.889 143.16C154.262 142.947 154.569 142.667 154.809 142.32C155.049 141.973 155.222 141.587 155.329 141.16C155.449 140.72 155.509 140.273 155.509 139.82C155.509 139.38 155.449 138.94 155.329 138.5C155.222 138.06 155.049 137.673 154.809 137.34C154.569 136.993 154.262 136.713 153.889 136.5C153.516 136.287 153.076 136.18 152.569 136.18C152.062 136.18 151.622 136.287 151.249 136.5C150.876 136.713 150.569 136.993 150.329 137.34C150.089 137.673 149.909 138.06 149.789 138.5C149.682 138.94 149.629 139.38 149.629 139.82C149.629 140.273 149.682 140.72 149.789 141.16C149.909 141.587 150.089 141.973 150.329 142.32C150.569 142.667 150.876 142.947 151.249 143.16C151.622 143.373 152.062 143.48 152.569 143.48ZM159.684 134.66H161.844V136.18L161.884 136.22C162.231 135.647 162.684 135.2 163.244 134.88C163.804 134.547 164.424 134.38 165.104 134.38C166.238 134.38 167.131 134.673 167.784 135.26C168.438 135.847 168.764 136.727 168.764 137.9V145H166.484V138.5C166.458 137.687 166.284 137.1 165.964 136.74C165.644 136.367 165.144 136.18 164.464 136.18C164.078 136.18 163.731 136.253 163.424 136.4C163.118 136.533 162.858 136.727 162.644 136.98C162.431 137.22 162.264 137.507 162.144 137.84C162.024 138.173 161.964 138.527 161.964 138.9V145H159.684V134.66ZM183.835 138.92C183.808 138.56 183.728 138.213 183.595 137.88C183.475 137.547 183.302 137.26 183.075 137.02C182.862 136.767 182.595 136.567 182.275 136.42C181.968 136.26 181.622 136.18 181.235 136.18C180.835 136.18 180.468 136.253 180.135 136.4C179.815 136.533 179.535 136.727 179.295 136.98C179.068 137.22 178.882 137.507 178.735 137.84C178.602 138.173 178.528 138.533 178.515 138.92H183.835ZM178.515 140.42C178.515 140.82 178.568 141.207 178.675 141.58C178.795 141.953 178.968 142.28 179.195 142.56C179.422 142.84 179.708 143.067 180.055 143.24C180.402 143.4 180.815 143.48 181.295 143.48C181.962 143.48 182.495 143.34 182.895 143.06C183.308 142.767 183.615 142.333 183.815 141.76H185.975C185.855 142.32 185.648 142.82 185.355 143.26C185.062 143.7 184.708 144.073 184.295 144.38C183.882 144.673 183.415 144.893 182.895 145.04C182.388 145.2 181.855 145.28 181.295 145.28C180.482 145.28 179.762 145.147 179.135 144.88C178.508 144.613 177.975 144.24 177.535 143.76C177.108 143.28 176.782 142.707 176.555 142.04C176.342 141.373 176.235 140.64 176.235 139.84C176.235 139.107 176.348 138.413 176.575 137.76C176.815 137.093 177.148 136.513 177.575 136.02C178.015 135.513 178.542 135.113 179.155 134.82C179.768 134.527 180.462 134.38 181.235 134.38C182.048 134.38 182.775 134.553 183.415 134.9C184.068 135.233 184.608 135.68 185.035 136.24C185.462 136.8 185.768 137.447 185.955 138.18C186.155 138.9 186.208 139.647 186.115 140.42H178.515ZM196.508 142.7C196.508 142.98 196.542 143.18 196.608 143.3C196.688 143.42 196.835 143.48 197.048 143.48C197.115 143.48 197.195 143.48 197.288 143.48C197.382 143.48 197.488 143.467 197.608 143.44V145.02C197.528 145.047 197.422 145.073 197.288 145.1C197.168 145.14 197.042 145.173 196.908 145.2C196.775 145.227 196.642 145.247 196.508 145.26C196.375 145.273 196.262 145.28 196.168 145.28C195.702 145.28 195.315 145.187 195.008 145C194.702 144.813 194.502 144.487 194.408 144.02C193.955 144.46 193.395 144.78 192.728 144.98C192.075 145.18 191.442 145.28 190.828 145.28C190.362 145.28 189.915 145.213 189.488 145.08C189.062 144.96 188.682 144.78 188.348 144.54C188.028 144.287 187.768 143.973 187.568 143.6C187.382 143.213 187.288 142.767 187.288 142.26C187.288 141.62 187.402 141.1 187.628 140.7C187.868 140.3 188.175 139.987 188.548 139.76C188.935 139.533 189.362 139.373 189.828 139.28C190.308 139.173 190.788 139.093 191.268 139.04C191.682 138.96 192.075 138.907 192.448 138.88C192.822 138.84 193.148 138.78 193.428 138.7C193.722 138.62 193.948 138.5 194.108 138.34C194.282 138.167 194.368 137.913 194.368 137.58C194.368 137.287 194.295 137.047 194.148 136.86C194.015 136.673 193.842 136.533 193.628 136.44C193.428 136.333 193.202 136.267 192.948 136.24C192.695 136.2 192.455 136.18 192.228 136.18C191.588 136.18 191.062 136.313 190.648 136.58C190.235 136.847 190.002 137.26 189.948 137.82H187.668C187.708 137.153 187.868 136.6 188.148 136.16C188.428 135.72 188.782 135.367 189.208 135.1C189.648 134.833 190.142 134.647 190.688 134.54C191.235 134.433 191.795 134.38 192.368 134.38C192.875 134.38 193.375 134.433 193.868 134.54C194.362 134.647 194.802 134.82 195.188 135.06C195.588 135.3 195.908 135.613 196.148 136C196.388 136.373 196.508 136.833 196.508 137.38V142.7ZM194.228 139.82C193.882 140.047 193.455 140.187 192.948 140.24C192.442 140.28 191.935 140.347 191.428 140.44C191.188 140.48 190.955 140.54 190.728 140.62C190.502 140.687 190.302 140.787 190.128 140.92C189.955 141.04 189.815 141.207 189.708 141.42C189.615 141.62 189.568 141.867 189.568 142.16C189.568 142.413 189.642 142.627 189.788 142.8C189.935 142.973 190.108 143.113 190.308 143.22C190.522 143.313 190.748 143.38 190.988 143.42C191.242 143.46 191.468 143.48 191.668 143.48C191.922 143.48 192.195 143.447 192.488 143.38C192.782 143.313 193.055 143.2 193.308 143.04C193.575 142.88 193.795 142.68 193.968 142.44C194.142 142.187 194.228 141.88 194.228 141.52V139.82ZM205.942 138.12C205.848 137.48 205.588 137 205.162 136.68C204.748 136.347 204.222 136.18 203.582 136.18C203.288 136.18 202.975 136.233 202.642 136.34C202.308 136.433 202.002 136.62 201.722 136.9C201.442 137.167 201.208 137.547 201.022 138.04C200.835 138.52 200.742 139.153 200.742 139.94C200.742 140.367 200.788 140.793 200.882 141.22C200.988 141.647 201.148 142.027 201.362 142.36C201.588 142.693 201.875 142.967 202.222 143.18C202.568 143.38 202.988 143.48 203.482 143.48C204.148 143.48 204.695 143.273 205.122 142.86C205.562 142.447 205.835 141.867 205.942 141.12H208.222C208.008 142.467 207.495 143.5 206.682 144.22C205.882 144.927 204.815 145.28 203.482 145.28C202.668 145.28 201.948 145.147 201.322 144.88C200.708 144.6 200.188 144.227 199.762 143.76C199.335 143.28 199.008 142.713 198.782 142.06C198.568 141.407 198.462 140.7 198.462 139.94C198.462 139.167 198.568 138.44 198.782 137.76C198.995 137.08 199.315 136.493 199.742 136C200.168 135.493 200.695 135.1 201.322 134.82C201.962 134.527 202.708 134.38 203.562 134.38C204.162 134.38 204.728 134.46 205.262 134.62C205.808 134.767 206.288 134.993 206.702 135.3C207.128 135.607 207.475 135.993 207.742 136.46C208.008 136.927 208.168 137.48 208.222 138.12H205.942ZM210.075 130.72H212.355V136.02H212.395C212.675 135.553 213.088 135.167 213.635 134.86C214.195 134.54 214.815 134.38 215.495 134.38C216.628 134.38 217.522 134.673 218.175 135.26C218.828 135.847 219.155 136.727 219.155 137.9V145H216.875V138.5C216.848 137.687 216.675 137.1 216.355 136.74C216.035 136.367 215.535 136.18 214.855 136.18C214.468 136.18 214.122 136.253 213.815 136.4C213.508 136.533 213.248 136.727 213.035 136.98C212.822 137.22 212.655 137.507 212.535 137.84C212.415 138.173 212.355 138.527 212.355 138.9V145H210.075V130.72ZM235.786 142.7C235.786 142.98 235.819 143.18 235.886 143.3C235.966 143.42 236.112 143.48 236.326 143.48C236.392 143.48 236.472 143.48 236.566 143.48C236.659 143.48 236.766 143.467 236.886 143.44V145.02C236.806 145.047 236.699 145.073 236.566 145.1C236.446 145.14 236.319 145.173 236.186 145.2C236.052 145.227 235.919 145.247 235.786 145.26C235.652 145.273 235.539 145.28 235.446 145.28C234.979 145.28 234.592 145.187 234.286 145C233.979 144.813 233.779 144.487 233.686 144.02C233.232 144.46 232.672 144.78 232.006 144.98C231.352 145.18 230.719 145.28 230.106 145.28C229.639 145.28 229.192 145.213 228.766 145.08C228.339 144.96 227.959 144.78 227.626 144.54C227.306 144.287 227.046 143.973 226.846 143.6C226.659 143.213 226.566 142.767 226.566 142.26C226.566 141.62 226.679 141.1 226.906 140.7C227.146 140.3 227.452 139.987 227.826 139.76C228.212 139.533 228.639 139.373 229.106 139.28C229.586 139.173 230.066 139.093 230.546 139.04C230.959 138.96 231.352 138.907 231.726 138.88C232.099 138.84 232.426 138.78 232.706 138.7C232.999 138.62 233.226 138.5 233.386 138.34C233.559 138.167 233.646 137.913 233.646 137.58C233.646 137.287 233.572 137.047 233.426 136.86C233.292 136.673 233.119 136.533 232.906 136.44C232.706 136.333 232.479 136.267 232.226 136.24C231.972 136.2 231.732 136.18 231.506 136.18C230.866 136.18 230.339 136.313 229.926 136.58C229.512 136.847 229.279 137.26 229.226 137.82H226.946C226.986 137.153 227.146 136.6 227.426 136.16C227.706 135.72 228.059 135.367 228.486 135.1C228.926 134.833 229.419 134.647 229.966 134.54C230.512 134.433 231.072 134.38 231.646 134.38C232.152 134.38 232.652 134.433 233.146 134.54C233.639 134.647 234.079 134.82 234.466 135.06C234.866 135.3 235.186 135.613 235.426 136C235.666 136.373 235.786 136.833 235.786 137.38V142.7ZM233.506 139.82C233.159 140.047 232.732 140.187 232.226 140.24C231.719 140.28 231.212 140.347 230.706 140.44C230.466 140.48 230.232 140.54 230.006 140.62C229.779 140.687 229.579 140.787 229.406 140.92C229.232 141.04 229.092 141.207 228.986 141.42C228.892 141.62 228.846 141.867 228.846 142.16C228.846 142.413 228.919 142.627 229.066 142.8C229.212 142.973 229.386 143.113 229.586 143.22C229.799 143.313 230.026 143.38 230.266 143.42C230.519 143.46 230.746 143.48 230.946 143.48C231.199 143.48 231.472 143.447 231.766 143.38C232.059 143.313 232.332 143.2 232.586 143.04C232.852 142.88 233.072 142.68 233.246 142.44C233.419 142.187 233.506 141.88 233.506 141.52V139.82ZM239.959 141.68C240.026 142.347 240.279 142.813 240.719 143.08C241.159 143.347 241.686 143.48 242.299 143.48C242.512 143.48 242.752 143.467 243.019 143.44C243.299 143.4 243.559 143.333 243.799 143.24C244.039 143.147 244.232 143.013 244.379 142.84C244.539 142.653 244.612 142.413 244.599 142.12C244.586 141.827 244.479 141.587 244.279 141.4C244.079 141.213 243.819 141.067 243.499 140.96C243.192 140.84 242.839 140.74 242.439 140.66C242.039 140.58 241.632 140.493 241.219 140.4C240.792 140.307 240.379 140.193 239.979 140.06C239.592 139.927 239.239 139.747 238.919 139.52C238.612 139.293 238.366 139.007 238.179 138.66C237.992 138.3 237.899 137.86 237.899 137.34C237.899 136.78 238.032 136.313 238.299 135.94C238.579 135.553 238.926 135.247 239.339 135.02C239.766 134.78 240.232 134.613 240.739 134.52C241.259 134.427 241.752 134.38 242.219 134.38C242.752 134.38 243.259 134.44 243.739 134.56C244.232 134.667 244.672 134.847 245.059 135.1C245.459 135.353 245.786 135.687 246.039 136.1C246.306 136.5 246.472 136.987 246.539 137.56H244.159C244.052 137.013 243.799 136.647 243.399 136.46C243.012 136.273 242.566 136.18 242.059 136.18C241.899 136.18 241.706 136.193 241.479 136.22C241.266 136.247 241.059 136.3 240.859 136.38C240.672 136.447 240.512 136.553 240.379 136.7C240.246 136.833 240.179 137.013 240.179 137.24C240.179 137.52 240.272 137.747 240.459 137.92C240.659 138.093 240.912 138.24 241.219 138.36C241.539 138.467 241.899 138.56 242.299 138.64C242.699 138.72 243.112 138.807 243.539 138.9C243.952 138.993 244.359 139.107 244.759 139.24C245.159 139.373 245.512 139.553 245.819 139.78C246.139 140.007 246.392 140.293 246.579 140.64C246.779 140.987 246.879 141.413 246.879 141.92C246.879 142.533 246.739 143.053 246.459 143.48C246.179 143.907 245.812 144.253 245.359 144.52C244.919 144.787 244.426 144.98 243.879 145.1C243.332 145.22 242.792 145.28 242.259 145.28C241.606 145.28 240.999 145.207 240.439 145.06C239.892 144.913 239.412 144.693 238.999 144.4C238.599 144.093 238.279 143.72 238.039 143.28C237.812 142.827 237.692 142.293 237.679 141.68H239.959ZM250.33 141.68C250.397 142.347 250.65 142.813 251.09 143.08C251.53 143.347 252.057 143.48 252.67 143.48C252.883 143.48 253.123 143.467 253.39 143.44C253.67 143.4 253.93 143.333 254.17 143.24C254.41 143.147 254.603 143.013 254.75 142.84C254.91 142.653 254.983 142.413 254.97 142.12C254.957 141.827 254.85 141.587 254.65 141.4C254.45 141.213 254.19 141.067 253.87 140.96C253.563 140.84 253.21 140.74 252.81 140.66C252.41 140.58 252.003 140.493 251.59 140.4C251.163 140.307 250.75 140.193 250.35 140.06C249.963 139.927 249.61 139.747 249.29 139.52C248.983 139.293 248.737 139.007 248.55 138.66C248.363 138.3 248.27 137.86 248.27 137.34C248.27 136.78 248.403 136.313 248.67 135.94C248.95 135.553 249.297 135.247 249.71 135.02C250.137 134.78 250.603 134.613 251.11 134.52C251.63 134.427 252.123 134.38 252.59 134.38C253.123 134.38 253.63 134.44 254.11 134.56C254.603 134.667 255.043 134.847 255.43 135.1C255.83 135.353 256.157 135.687 256.41 136.1C256.677 136.5 256.843 136.987 256.91 137.56H254.53C254.423 137.013 254.17 136.647 253.77 136.46C253.383 136.273 252.937 136.18 252.43 136.18C252.27 136.18 252.077 136.193 251.85 136.22C251.637 136.247 251.43 136.3 251.23 136.38C251.043 136.447 250.883 136.553 250.75 136.7C250.617 136.833 250.55 137.013 250.55 137.24C250.55 137.52 250.643 137.747 250.83 137.92C251.03 138.093 251.283 138.24 251.59 138.36C251.91 138.467 252.27 138.56 252.67 138.64C253.07 138.72 253.483 138.807 253.91 138.9C254.323 138.993 254.73 139.107 255.13 139.24C255.53 139.373 255.883 139.553 256.19 139.78C256.51 140.007 256.763 140.293 256.95 140.64C257.15 140.987 257.25 141.413 257.25 141.92C257.25 142.533 257.11 143.053 256.83 143.48C256.55 143.907 256.183 144.253 255.73 144.52C255.29 144.787 254.797 144.98 254.25 145.1C253.703 145.22 253.163 145.28 252.63 145.28C251.977 145.28 251.37 145.207 250.81 145.06C250.263 144.913 249.783 144.693 249.37 144.4C248.97 144.093 248.65 143.72 248.41 143.28C248.183 142.827 248.063 142.293 248.05 141.68H250.33ZM266.081 138.92C266.055 138.56 265.975 138.213 265.841 137.88C265.721 137.547 265.548 137.26 265.321 137.02C265.108 136.767 264.841 136.567 264.521 136.42C264.215 136.26 263.868 136.18 263.481 136.18C263.081 136.18 262.715 136.253 262.381 136.4C262.061 136.533 261.781 136.727 261.541 136.98C261.315 137.22 261.128 137.507 260.981 137.84C260.848 138.173 260.775 138.533 260.761 138.92H266.081ZM260.761 140.42C260.761 140.82 260.815 141.207 260.921 141.58C261.041 141.953 261.215 142.28 261.441 142.56C261.668 142.84 261.955 143.067 262.301 143.24C262.648 143.4 263.061 143.48 263.541 143.48C264.208 143.48 264.741 143.34 265.141 143.06C265.555 142.767 265.861 142.333 266.061 141.76H268.221C268.101 142.32 267.895 142.82 267.601 143.26C267.308 143.7 266.955 144.073 266.541 144.38C266.128 144.673 265.661 144.893 265.141 145.04C264.635 145.2 264.101 145.28 263.541 145.28C262.728 145.28 262.008 145.147 261.381 144.88C260.755 144.613 260.221 144.24 259.781 143.76C259.355 143.28 259.028 142.707 258.801 142.04C258.588 141.373 258.481 140.64 258.481 139.84C258.481 139.107 258.595 138.413 258.821 137.76C259.061 137.093 259.395 136.513 259.821 136.02C260.261 135.513 260.788 135.113 261.401 134.82C262.015 134.527 262.708 134.38 263.481 134.38C264.295 134.38 265.021 134.553 265.661 134.9C266.315 135.233 266.855 135.68 267.281 136.24C267.708 136.8 268.015 137.447 268.201 138.18C268.401 138.9 268.455 139.647 268.361 140.42H260.761ZM269.055 134.66H270.775V131.56H273.055V134.66H275.115V136.36H273.055V141.88C273.055 142.12 273.061 142.327 273.075 142.5C273.101 142.673 273.148 142.82 273.215 142.94C273.295 143.06 273.408 143.153 273.555 143.22C273.701 143.273 273.901 143.3 274.155 143.3C274.315 143.3 274.475 143.3 274.635 143.3C274.795 143.287 274.955 143.26 275.115 143.22V144.98C274.861 145.007 274.615 145.033 274.375 145.06C274.135 145.087 273.888 145.1 273.635 145.1C273.035 145.1 272.548 145.047 272.175 144.94C271.815 144.82 271.528 144.653 271.315 144.44C271.115 144.213 270.975 143.933 270.895 143.6C270.828 143.267 270.788 142.887 270.775 142.46V136.36H269.055V134.66ZM109.904 158.66H111.624V155.56H113.904V158.66H115.964V160.36H113.904V165.88C113.904 166.12 113.911 166.327 113.924 166.5C113.951 166.673 113.997 166.82 114.064 166.94C114.144 167.06 114.257 167.153 114.404 167.22C114.551 167.273 114.751 167.3 115.004 167.3C115.164 167.3 115.324 167.3 115.484 167.3C115.644 167.287 115.804 167.26 115.964 167.22V168.98C115.711 169.007 115.464 169.033 115.224 169.06C114.984 169.087 114.737 169.1 114.484 169.1C113.884 169.1 113.397 169.047 113.024 168.94C112.664 168.82 112.377 168.653 112.164 168.44C111.964 168.213 111.824 167.933 111.744 167.6C111.677 167.267 111.637 166.887 111.624 166.46V160.36H109.904V158.66ZM117.664 154.72H119.944V156.88H117.664V154.72ZM117.664 158.66H119.944V169H117.664V158.66ZM121.389 158.66H123.109V155.56H125.389V158.66H127.449V160.36H125.389V165.88C125.389 166.12 125.395 166.327 125.409 166.5C125.435 166.673 125.482 166.82 125.549 166.94C125.629 167.06 125.742 167.153 125.889 167.22C126.035 167.273 126.235 167.3 126.489 167.3C126.649 167.3 126.809 167.3 126.969 167.3C127.129 167.287 127.289 167.26 127.449 167.22V168.98C127.195 169.007 126.949 169.033 126.709 169.06C126.469 169.087 126.222 169.1 125.969 169.1C125.369 169.1 124.882 169.047 124.509 168.94C124.149 168.82 123.862 168.653 123.649 168.44C123.449 168.213 123.309 167.933 123.229 167.6C123.162 167.267 123.122 166.887 123.109 166.46V160.36H121.389V158.66ZM129.149 154.72H131.429V169H129.149V154.72ZM141.013 162.92C140.986 162.56 140.906 162.213 140.773 161.88C140.653 161.547 140.48 161.26 140.253 161.02C140.04 160.767 139.773 160.567 139.453 160.42C139.146 160.26 138.8 160.18 138.413 160.18C138.013 160.18 137.646 160.253 137.313 160.4C136.993 160.533 136.713 160.727 136.473 160.98C136.246 161.22 136.06 161.507 135.913 161.84C135.78 162.173 135.706 162.533 135.693 162.92H141.013ZM135.693 164.42C135.693 164.82 135.746 165.207 135.853 165.58C135.973 165.953 136.146 166.28 136.373 166.56C136.6 166.84 136.886 167.067 137.233 167.24C137.58 167.4 137.993 167.48 138.473 167.48C139.14 167.48 139.673 167.34 140.073 167.06C140.486 166.767 140.793 166.333 140.993 165.76H143.153C143.033 166.32 142.826 166.82 142.533 167.26C142.24 167.7 141.886 168.073 141.473 168.38C141.06 168.673 140.593 168.893 140.073 169.04C139.566 169.2 139.033 169.28 138.473 169.28C137.66 169.28 136.94 169.147 136.313 168.88C135.686 168.613 135.153 168.24 134.713 167.76C134.286 167.28 133.96 166.707 133.733 166.04C133.52 165.373 133.413 164.64 133.413 163.84C133.413 163.107 133.526 162.413 133.753 161.76C133.993 161.093 134.326 160.513 134.753 160.02C135.193 159.513 135.72 159.113 136.333 158.82C136.946 158.527 137.64 158.38 138.413 158.38C139.226 158.38 139.953 158.553 140.593 158.9C141.246 159.233 141.786 159.68 142.213 160.24C142.64 160.8 142.946 161.447 143.133 162.18C143.333 162.9 143.386 163.647 143.293 164.42H135.693ZM149.553 158.66H151.273V155.56H153.553V158.66H155.613V160.36H153.553V165.88C153.553 166.12 153.559 166.327 153.573 166.5C153.599 166.673 153.646 166.82 153.713 166.94C153.793 167.06 153.906 167.153 154.053 167.22C154.199 167.273 154.399 167.3 154.653 167.3C154.813 167.3 154.973 167.3 155.133 167.3C155.293 167.287 155.453 167.26 155.613 167.22V168.98C155.359 169.007 155.113 169.033 154.873 169.06C154.633 169.087 154.386 169.1 154.133 169.1C153.533 169.1 153.046 169.047 152.673 168.94C152.313 168.82 152.026 168.653 151.813 168.44C151.613 168.213 151.473 167.933 151.393 167.6C151.326 167.267 151.286 166.887 151.273 166.46V160.36H149.553V158.66ZM161.993 169.28C161.166 169.28 160.426 169.147 159.773 168.88C159.133 168.6 158.586 168.22 158.133 167.74C157.693 167.26 157.353 166.687 157.113 166.02C156.886 165.353 156.773 164.62 156.773 163.82C156.773 163.033 156.886 162.307 157.113 161.64C157.353 160.973 157.693 160.4 158.133 159.92C158.586 159.44 159.133 159.067 159.773 158.8C160.426 158.52 161.166 158.38 161.993 158.38C162.819 158.38 163.553 158.52 164.193 158.8C164.846 159.067 165.393 159.44 165.833 159.92C166.286 160.4 166.626 160.973 166.853 161.64C167.093 162.307 167.213 163.033 167.213 163.82C167.213 164.62 167.093 165.353 166.853 166.02C166.626 166.687 166.286 167.26 165.833 167.74C165.393 168.22 164.846 168.6 164.193 168.88C163.553 169.147 162.819 169.28 161.993 169.28ZM161.993 167.48C162.499 167.48 162.939 167.373 163.313 167.16C163.686 166.947 163.993 166.667 164.233 166.32C164.473 165.973 164.646 165.587 164.753 165.16C164.873 164.72 164.933 164.273 164.933 163.82C164.933 163.38 164.873 162.94 164.753 162.5C164.646 162.06 164.473 161.673 164.233 161.34C163.993 160.993 163.686 160.713 163.313 160.5C162.939 160.287 162.499 160.18 161.993 160.18C161.486 160.18 161.046 160.287 160.673 160.5C160.299 160.713 159.993 160.993 159.753 161.34C159.513 161.673 159.333 162.06 159.213 162.5C159.106 162.94 159.053 163.38 159.053 163.82C159.053 164.273 159.106 164.72 159.213 165.16C159.333 165.587 159.513 165.973 159.753 166.32C159.993 166.667 160.299 166.947 160.673 167.16C161.046 167.373 161.486 167.48 161.993 167.48ZM176.395 165.68C176.461 166.347 176.715 166.813 177.155 167.08C177.595 167.347 178.121 167.48 178.735 167.48C178.948 167.48 179.188 167.467 179.455 167.44C179.735 167.4 179.995 167.333 180.235 167.24C180.475 167.147 180.668 167.013 180.815 166.84C180.975 166.653 181.048 166.413 181.035 166.12C181.021 165.827 180.915 165.587 180.715 165.4C180.515 165.213 180.255 165.067 179.935 164.96C179.628 164.84 179.275 164.74 178.875 164.66C178.475 164.58 178.068 164.493 177.655 164.4C177.228 164.307 176.815 164.193 176.415 164.06C176.028 163.927 175.675 163.747 175.355 163.52C175.048 163.293 174.801 163.007 174.615 162.66C174.428 162.3 174.335 161.86 174.335 161.34C174.335 160.78 174.468 160.313 174.735 159.94C175.015 159.553 175.361 159.247 175.775 159.02C176.201 158.78 176.668 158.613 177.175 158.52C177.695 158.427 178.188 158.38 178.655 158.38C179.188 158.38 179.695 158.44 180.175 158.56C180.668 158.667 181.108 158.847 181.495 159.1C181.895 159.353 182.221 159.687 182.475 160.1C182.741 160.5 182.908 160.987 182.975 161.56H180.595C180.488 161.013 180.235 160.647 179.835 160.46C179.448 160.273 179.001 160.18 178.495 160.18C178.335 160.18 178.141 160.193 177.915 160.22C177.701 160.247 177.495 160.3 177.295 160.38C177.108 160.447 176.948 160.553 176.815 160.7C176.681 160.833 176.615 161.013 176.615 161.24C176.615 161.52 176.708 161.747 176.895 161.92C177.095 162.093 177.348 162.24 177.655 162.36C177.975 162.467 178.335 162.56 178.735 162.64C179.135 162.72 179.548 162.807 179.975 162.9C180.388 162.993 180.795 163.107 181.195 163.24C181.595 163.373 181.948 163.553 182.255 163.78C182.575 164.007 182.828 164.293 183.015 164.64C183.215 164.987 183.315 165.413 183.315 165.92C183.315 166.533 183.175 167.053 182.895 167.48C182.615 167.907 182.248 168.253 181.795 168.52C181.355 168.787 180.861 168.98 180.315 169.1C179.768 169.22 179.228 169.28 178.695 169.28C178.041 169.28 177.435 169.207 176.875 169.06C176.328 168.913 175.848 168.693 175.435 168.4C175.035 168.093 174.715 167.72 174.475 167.28C174.248 166.827 174.128 166.293 174.115 165.68H176.395ZM192.146 162.92C192.119 162.56 192.039 162.213 191.906 161.88C191.786 161.547 191.612 161.26 191.386 161.02C191.172 160.767 190.906 160.567 190.586 160.42C190.279 160.26 189.932 160.18 189.546 160.18C189.146 160.18 188.779 160.253 188.446 160.4C188.126 160.533 187.846 160.727 187.606 160.98C187.379 161.22 187.192 161.507 187.046 161.84C186.912 162.173 186.839 162.533 186.826 162.92H192.146ZM186.826 164.42C186.826 164.82 186.879 165.207 186.986 165.58C187.106 165.953 187.279 166.28 187.506 166.56C187.732 166.84 188.019 167.067 188.366 167.24C188.712 167.4 189.126 167.48 189.606 167.48C190.272 167.48 190.806 167.34 191.206 167.06C191.619 166.767 191.926 166.333 192.126 165.76H194.286C194.166 166.32 193.959 166.82 193.666 167.26C193.372 167.7 193.019 168.073 192.606 168.38C192.192 168.673 191.726 168.893 191.206 169.04C190.699 169.2 190.166 169.28 189.606 169.28C188.792 169.28 188.072 169.147 187.446 168.88C186.819 168.613 186.286 168.24 185.846 167.76C185.419 167.28 185.092 166.707 184.866 166.04C184.652 165.373 184.546 164.64 184.546 163.84C184.546 163.107 184.659 162.413 184.886 161.76C185.126 161.093 185.459 160.513 185.886 160.02C186.326 159.513 186.852 159.113 187.466 158.82C188.079 158.527 188.772 158.38 189.546 158.38C190.359 158.38 191.086 158.553 191.726 158.9C192.379 159.233 192.919 159.68 193.346 160.24C193.772 160.8 194.079 161.447 194.266 162.18C194.466 162.9 194.519 163.647 194.426 164.42H186.826ZM203.259 162.92C203.232 162.56 203.152 162.213 203.019 161.88C202.899 161.547 202.726 161.26 202.499 161.02C202.286 160.767 202.019 160.567 201.699 160.42C201.392 160.26 201.046 160.18 200.659 160.18C200.259 160.18 199.892 160.253 199.559 160.4C199.239 160.533 198.959 160.727 198.719 160.98C198.492 161.22 198.306 161.507 198.159 161.84C198.026 162.173 197.952 162.533 197.939 162.92H203.259ZM197.939 164.42C197.939 164.82 197.992 165.207 198.099 165.58C198.219 165.953 198.392 166.28 198.619 166.56C198.846 166.84 199.132 167.067 199.479 167.24C199.826 167.4 200.239 167.48 200.719 167.48C201.386 167.48 201.919 167.34 202.319 167.06C202.732 166.767 203.039 166.333 203.239 165.76H205.399C205.279 166.32 205.072 166.82 204.779 167.26C204.486 167.7 204.132 168.073 203.719 168.38C203.306 168.673 202.839 168.893 202.319 169.04C201.812 169.2 201.279 169.28 200.719 169.28C199.906 169.28 199.186 169.147 198.559 168.88C197.932 168.613 197.399 168.24 196.959 167.76C196.532 167.28 196.206 166.707 195.979 166.04C195.766 165.373 195.659 164.64 195.659 163.84C195.659 163.107 195.772 162.413 195.999 161.76C196.239 161.093 196.572 160.513 196.999 160.02C197.439 159.513 197.966 159.113 198.579 158.82C199.192 158.527 199.886 158.38 200.659 158.38C201.472 158.38 202.199 158.553 202.839 158.9C203.492 159.233 204.032 159.68 204.459 160.24C204.886 160.8 205.192 161.447 205.379 162.18C205.579 162.9 205.632 163.647 205.539 164.42H197.939ZM212.839 158.66H214.999V160.1H215.059C215.232 159.847 215.419 159.613 215.619 159.4C215.819 159.187 216.039 159.007 216.279 158.86C216.532 158.713 216.819 158.6 217.139 158.52C217.459 158.427 217.825 158.38 218.239 158.38C218.865 158.38 219.445 158.52 219.979 158.8C220.525 159.08 220.912 159.513 221.139 160.1C221.525 159.567 221.972 159.147 222.479 158.84C222.985 158.533 223.619 158.38 224.379 158.38C225.472 158.38 226.319 158.647 226.919 159.18C227.532 159.713 227.839 160.607 227.839 161.86V169H225.559V162.96C225.559 162.547 225.545 162.173 225.519 161.84C225.492 161.493 225.412 161.2 225.279 160.96C225.159 160.707 224.972 160.513 224.719 160.38C224.465 160.247 224.119 160.18 223.679 160.18C222.905 160.18 222.345 160.42 221.999 160.9C221.652 161.38 221.479 162.06 221.479 162.94V169H219.199V162.36C219.199 161.64 219.065 161.1 218.799 160.74C218.545 160.367 218.072 160.18 217.379 160.18C217.085 160.18 216.799 160.24 216.519 160.36C216.252 160.48 216.012 160.653 215.799 160.88C215.599 161.107 215.432 161.387 215.299 161.72C215.179 162.053 215.119 162.433 215.119 162.86V169H212.839V158.66ZM234.981 169.28C234.154 169.28 233.414 169.147 232.761 168.88C232.121 168.6 231.574 168.22 231.121 167.74C230.681 167.26 230.341 166.687 230.101 166.02C229.874 165.353 229.761 164.62 229.761 163.82C229.761 163.033 229.874 162.307 230.101 161.64C230.341 160.973 230.681 160.4 231.121 159.92C231.574 159.44 232.121 159.067 232.761 158.8C233.414 158.52 234.154 158.38 234.981 158.38C235.808 158.38 236.541 158.52 237.181 158.8C237.834 159.067 238.381 159.44 238.821 159.92C239.274 160.4 239.614 160.973 239.841 161.64C240.081 162.307 240.201 163.033 240.201 163.82C240.201 164.62 240.081 165.353 239.841 166.02C239.614 166.687 239.274 167.26 238.821 167.74C238.381 168.22 237.834 168.6 237.181 168.88C236.541 169.147 235.808 169.28 234.981 169.28ZM234.981 167.48C235.488 167.48 235.928 167.373 236.301 167.16C236.674 166.947 236.981 166.667 237.221 166.32C237.461 165.973 237.634 165.587 237.741 165.16C237.861 164.72 237.921 164.273 237.921 163.82C237.921 163.38 237.861 162.94 237.741 162.5C237.634 162.06 237.461 161.673 237.221 161.34C236.981 160.993 236.674 160.713 236.301 160.5C235.928 160.287 235.488 160.18 234.981 160.18C234.474 160.18 234.034 160.287 233.661 160.5C233.288 160.713 232.981 160.993 232.741 161.34C232.501 161.673 232.321 162.06 232.201 162.5C232.094 162.94 232.041 163.38 232.041 163.82C232.041 164.273 232.094 164.72 232.201 165.16C232.321 165.587 232.501 165.973 232.741 166.32C232.981 166.667 233.288 166.947 233.661 167.16C234.034 167.373 234.474 167.48 234.981 167.48ZM242.096 158.66H244.236V160.66H244.276C244.343 160.38 244.47 160.107 244.656 159.84C244.856 159.573 245.09 159.333 245.356 159.12C245.636 158.893 245.943 158.713 246.276 158.58C246.61 158.447 246.95 158.38 247.296 158.38C247.563 158.38 247.743 158.387 247.836 158.4C247.943 158.413 248.05 158.427 248.156 158.44V160.64C247.996 160.613 247.83 160.593 247.656 160.58C247.496 160.553 247.336 160.54 247.176 160.54C246.79 160.54 246.423 160.62 246.076 160.78C245.743 160.927 245.45 161.153 245.196 161.46C244.943 161.753 244.743 162.12 244.596 162.56C244.45 163 244.376 163.507 244.376 164.08V169H242.096V158.66ZM255.876 162.92C255.85 162.56 255.77 162.213 255.636 161.88C255.516 161.547 255.343 161.26 255.116 161.02C254.903 160.767 254.636 160.567 254.316 160.42C254.01 160.26 253.663 160.18 253.276 160.18C252.876 160.18 252.51 160.253 252.176 160.4C251.856 160.533 251.576 160.727 251.336 160.98C251.11 161.22 250.923 161.507 250.776 161.84C250.643 162.173 250.57 162.533 250.556 162.92H255.876ZM250.556 164.42C250.556 164.82 250.61 165.207 250.716 165.58C250.836 165.953 251.01 166.28 251.236 166.56C251.463 166.84 251.75 167.067 252.096 167.24C252.443 167.4 252.856 167.48 253.336 167.48C254.003 167.48 254.536 167.34 254.936 167.06C255.35 166.767 255.656 166.333 255.856 165.76H258.016C257.896 166.32 257.69 166.82 257.396 167.26C257.103 167.7 256.75 168.073 256.336 168.38C255.923 168.673 255.456 168.893 254.936 169.04C254.43 169.2 253.896 169.28 253.336 169.28C252.523 169.28 251.803 169.147 251.176 168.88C250.55 168.613 250.016 168.24 249.576 167.76C249.15 167.28 248.823 166.707 248.596 166.04C248.383 165.373 248.276 164.64 248.276 163.84C248.276 163.107 248.39 162.413 248.616 161.76C248.856 161.093 249.19 160.513 249.616 160.02C250.056 159.513 250.583 159.113 251.196 158.82C251.81 158.527 252.503 158.38 253.276 158.38C254.09 158.38 254.816 158.553 255.456 158.9C256.11 159.233 256.65 159.68 257.076 160.24C257.503 160.8 257.81 161.447 257.996 162.18C258.196 162.9 258.25 163.647 258.156 164.42H250.556ZM260.129 166.5H262.809V169H260.129V166.5ZM260.229 154.72H262.729V158.84L262.069 165.02H260.889L260.229 158.84V154.72Z" fill="#32323E"/>
</svg>
